<?xml version="1.0" encoding="UTF-8"?>
<!DOCTYPE svg PUBLIC "-//W3C//DTD SVG 1.1//EN" "http://www.w3.org/Graphics/SVG/1.1/DTD/svg11.dtd">
<svg version="1.1" xmlns="http://www.w3.org/2000/svg" xmlns:xlink="http://www.w3.org/1999/xlink" x="0" y="0" width="110" height="19" viewBox="0, 0, 110, 19">
  <g id="Layer_1">
    <path d="M27.465,7.425 L31.315,7.425 L31.315,12.075 L27.49,12.075 L27.49,18.35 L22.09,18.35 L22.09,0.65 L31.665,0.65 L31.665,5.55 L27.465,5.55 z" fill="#376FAE"/>
    <path d="M39.09,12 L38.64,12 L38.64,18.35 L33.44,18.35 L33.44,0.65 L40.015,0.65 Q41.54,0.65 42.677,1.05 Q43.815,1.45 44.54,2.2 Q45.265,2.95 45.627,4.012 Q45.99,5.075 45.99,6.4 Q45.99,7.3 45.79,8.025 Q45.59,8.75 45.29,9.312 Q44.99,9.875 44.615,10.25 Q44.24,10.625 43.865,10.8 L46.69,18.35 L40.965,18.35 z M38.64,5.175 L38.64,8.275 L39.09,8.275 Q39.315,8.275 39.59,8.212 Q39.865,8.15 40.09,7.975 Q40.315,7.8 40.465,7.5 Q40.615,7.2 40.615,6.725 Q40.615,6.225 40.477,5.925 Q40.34,5.625 40.127,5.45 Q39.915,5.275 39.677,5.225 Q39.44,5.175 39.24,5.175 z" fill="#376FAE"/>
    <path d="M47.99,0.65 L53.49,0.65 L53.49,18.35 L47.99,18.35 z" fill="#376FAE"/>
    <path d="M56.09,0.65 L65.54,0.65 L65.54,5.425 L61.265,5.425 L61.265,7.2 L65.14,7.2 L65.14,11.625 L61.265,11.625 L61.265,13.5 L65.865,13.5 L65.865,18.35 L56.09,18.35 z" fill="#376FAE"/>
    <path d="M83.602,18.35 L83.602,0.65 L89.302,0.65 Q91.477,0.65 92.99,1.312 Q94.502,1.975 95.44,3.15 Q96.377,4.325 96.802,5.963 Q97.227,7.6 97.227,9.55 Q97.227,11.475 96.802,13.087 Q96.377,14.7 95.44,15.863 Q94.502,17.025 92.99,17.688 Q91.477,18.35 89.302,18.35 z M91.752,9.55 Q91.752,7.575 91.127,6.488 Q90.502,5.4 89.402,5.4 L89.077,5.4 L89.077,13.6 L89.402,13.6 Q90.502,13.6 91.127,12.512 Q91.752,11.425 91.752,9.55 z" fill="#376FAE"/>
    <g>
      <path d="M72.494,10 L72.419,10 L72.619,18.35 L67.794,18.35 L67.794,0.65 L73.569,0.65 L76.344,9.275 L76.444,9.275 L76.294,0.65 L80.944,0.65 L80.944,18.35 L75.319,18.35 z" fill="#082B5A"/>
      <path d="M103.144,18.8 Q102.244,18.8 101.432,18.638 Q100.619,18.475 99.932,18.2 Q99.244,17.925 98.669,17.575 Q98.094,17.225 97.694,16.875 L100.294,12.75 Q100.869,13.225 101.557,13.525 Q102.244,13.825 102.919,13.825 Q103.344,13.825 103.632,13.613 Q103.919,13.4 103.919,13 Q103.919,12.525 103.507,12.2 Q103.094,11.875 102.219,11.45 Q101.469,11.1 100.794,10.663 Q100.119,10.225 99.594,9.6 Q99.069,8.975 98.757,8.137 Q98.444,7.3 98.444,6.175 Q98.444,4.55 99.019,3.412 Q99.594,2.275 100.482,1.562 Q101.369,0.85 102.457,0.525 Q103.544,0.2 104.594,0.2 Q106.194,0.2 107.457,0.7 Q108.719,1.2 109.569,2 L106.894,6.075 Q106.469,5.65 105.894,5.363 Q105.319,5.075 104.794,5.075 Q104.394,5.075 104.069,5.275 Q103.744,5.475 103.744,5.975 Q103.744,6.375 104.082,6.625 Q104.419,6.875 105.394,7.35 Q105.944,7.625 106.619,8.038 Q107.294,8.45 107.894,9.087 Q108.494,9.725 108.907,10.625 Q109.319,11.525 109.319,12.75 Q109.319,14.35 108.794,15.5 Q108.269,16.65 107.394,17.375 Q106.519,18.1 105.407,18.45 Q104.294,18.8 103.144,18.8 z" fill="#082B5A"/>
    </g>
    <g id="canstockphoto11111189">
      <path d="M16.652,18.308 C15.15,17.949 13.881,17.037 12.543,16.632 C11.686,16.373 10.799,16.368 9.834,16.914 C9.816,15.731 10.551,14.899 10.95,14.218 C11.406,13.437 11.105,12.671 10.705,11.92 C10.066,10.723 9.165,9.673 10.295,7.405 C10.564,6.892 10.969,6.485 11.453,6.183 C11.419,5.89 11.407,5.59 11.426,5.284 C10.446,5.786 9.569,6.802 8.473,6.148 C7.805,7.808 8.859,10.569 6.826,11.166 C6.621,11.853 4.796,13.181 2.804,11.481 C0.87,11.145 -0.553,8.691 1.28,7.144 C2.035,6.522 3.821,6.534 3.206,8.834 C2.831,8.356 2.427,8.172 2.25,8.349 C1.241,9.355 3.563,10.246 4.581,8.362 C4.369,6.171 4.428,2.839 6.695,1.898 C8.845,-0.901 13.126,1.4 12.083,4.944 C12.336,5.15 12.59,5.417 12.755,5.657 C14.601,5.239 16.802,5.909 17.529,7.693 C18.609,8.162 19.847,9.717 20.44,10.913 C19.825,12.398 18.294,13.8 17.53,14.006 C17.268,14.481 17.205,14.762 17.244,15.071 C20.036,15.974 18.98,18.723 16.652,18.308" fill="#082B5A"/>
      <path d="M12.463,16.264 C11.735,16.078 10.978,16.074 10.134,16.445 C10.186,16.15 10.3,15.87 10.44,15.601 C11.28,15.345 12.034,15.456 12.768,15.721 C12.679,15.91 12.577,16.092 12.463,16.264" fill="#082B5A"/>
      <path d="M16.612,17.959 C15.171,17.616 13.969,16.721 12.695,16.329 C12.809,16.17 12.91,15.996 12.998,15.809 C14.107,16.256 15.185,17.005 16.462,17.31 C18.204,17.715 19.116,16.526 17.469,15.642 C18.739,16.479 18.094,17.429 16.481,17.054 C15.233,16.757 14.176,16.035 13.094,15.585 C13.659,14.152 13.518,12.165 12.826,11.323 C13.366,12.36 13.436,14.095 12.867,15.495 C12.152,15.226 11.419,15.095 10.608,15.304 C11.311,14.137 11.798,13.624 11.185,12.278 C10.566,10.921 9.392,9.78 10.507,7.662 C11.806,5.195 16.091,5.265 17.244,7.827 C17.039,8.986 14.319,9.817 13.795,9.818 C13.814,9.877 13.805,9.907 13.823,9.966 C15.298,9.874 17.253,8.972 17.486,7.974 C18.373,8.542 19.655,9.828 20.1,10.914 C19.545,12.254 18.245,13.36 17.493,13.68 C17.162,12.834 14.781,11.616 13.337,11.422 C13.318,11.481 13.328,11.511 13.309,11.569 C14.83,11.938 16.675,12.976 17.286,13.825 C16.702,14.517 16.873,16.002 17.546,16.538 C17.339,16.064 17.191,15.788 17.163,15.318 C19.534,16.232 18.778,18.346 16.612,17.959" fill="#082B5A"/>
      <path d="M13.226,12.1 C13.125,11.791 12.991,11.524 12.826,11.323 C12.946,11.554 13.043,11.82 13.115,12.108 L13.09,12.109 C12.366,12.114 11.779,11.502 11.779,10.742 C11.779,9.981 12.366,9.36 13.09,9.354 C13.455,9.352 13.785,9.506 14.022,9.757 C13.926,9.785 13.848,9.806 13.795,9.818 C13.579,10.239 13.495,10.712 13.337,11.422 C13.318,11.481 13.328,11.511 13.309,11.569 C14.83,11.938 16.675,12.976 17.286,13.825 C17.256,13.861 17.227,13.899 17.201,13.94 C16.537,13.137 15.109,12.446 13.709,11.94 C13.562,12.024 13.399,12.08 13.226,12.1" fill="#082B5A"/>
      <path d="M13.159,9.319 C12.473,9.319 11.917,9.903 11.917,10.624 C11.917,11.344 12.473,11.928 13.159,11.928 C13.844,11.928 14.401,11.344 14.401,10.624 C14.401,9.903 13.844,9.319 13.159,9.319" fill="#082B5A"/>
      <path d="M13.195,9.525 C12.638,9.525 12.186,10 12.186,10.586 C12.186,11.171 12.638,11.646 13.195,11.646 C13.752,11.646 14.204,11.171 14.204,10.586 C14.204,10 13.752,9.525 13.195,9.525" fill="#082B5A"/>
      <path d="M13.242,9.601 C12.74,9.601 12.332,10.028 12.332,10.556 C12.332,11.084 12.74,11.511 13.242,11.511 C13.744,11.511 14.151,11.084 14.151,10.556 C14.151,10.028 13.744,9.601 13.242,9.601" fill="#082B5A"/>
      <path d="M13.195,10.056 C12.917,10.056 12.691,10.293 12.691,10.586 C12.691,10.878 12.917,11.115 13.195,11.115 C13.473,11.115 13.699,10.878 13.699,10.586 C13.699,10.293 13.473,10.056 13.195,10.056" fill="#082B5A"/>
      <path d="M13.228,10.194 C13.041,10.194 12.889,10.354 12.889,10.55 C12.889,10.747 13.041,10.907 13.228,10.907 C13.416,10.907 13.568,10.747 13.568,10.55 C13.568,10.354 13.416,10.194 13.228,10.194" fill="#082B5A"/>
      <path d="M19.525,10.992 C19.143,11.824 18.425,12.605 17.817,13.11 C17.706,12.975 17.558,12.836 17.383,12.697 C17.847,12.23 18.293,11.44 18.402,10.992 L19.525,10.992" fill="#082B5A"/>
      <path d="M17.946,10.992 C17.724,11.59 17.412,12.085 17.105,12.492 C16.932,12.373 16.741,12.255 16.54,12.141 C16.776,11.808 16.974,11.378 17.073,10.992 L17.946,10.992" fill="#082B5A"/>
      <path d="M16.524,10.992 C16.473,11.351 16.367,11.679 16.188,11.952 C15.991,11.852 15.788,11.757 15.584,11.67 C15.671,11.455 15.74,11.223 15.778,10.992 L16.524,10.992" fill="#082B5A"/>
      <path d="M15.318,10.992 C15.292,11.179 15.246,11.351 15.189,11.511 C14.986,11.435 14.784,11.367 14.588,11.31 C14.614,11.206 14.634,11.1 14.649,10.992 L15.318,10.992 z M14.584,11.526 C14.567,11.524 14.548,11.523 14.527,11.522 L14.532,11.507 L14.584,11.526" fill="#082B5A"/>
      <path d="M16.486,10.635 C16.402,10.307 16.306,10.029 16.14,9.732 C15.944,9.816 15.742,9.891 15.537,9.955 C15.62,10.17 15.674,10.403 15.71,10.635 L16.486,10.635" fill="#082B5A"/>
      <path d="M15.311,10.635 C15.27,10.437 15.227,10.26 15.153,10.061 C14.942,10.112 14.731,10.151 14.526,10.177 C14.572,10.324 14.605,10.478 14.628,10.635 L15.311,10.635" fill="#082B5A"/>
      <path d="M19.527,10.635 C19.092,9.878 18.347,9.051 17.729,8.56 C17.616,8.741 17.453,8.916 17.253,9.079 C17.736,9.521 18.234,10.245 18.398,10.635 L19.527,10.635" fill="#082B5A"/>
      <path d="M17.933,10.635 C17.667,10.103 17.339,9.681 16.987,9.277 C16.834,9.38 16.667,9.478 16.49,9.568 C16.695,9.856 16.931,10.273 17.031,10.635 L17.933,10.635" fill="#082B5A"/>
      <path d="M17.56,13.535 C16.979,12.63 15.718,12.069 14.183,11.508 C14.202,11.449 14.295,11.39 14.314,11.331 C15.287,11.494 17.627,12.666 17.56,13.535" fill="#082B5A"/>
      <path d="M17.56,8.301 C16.979,9.095 15.803,9.692 14.267,9.963 C14.286,10.026 14.342,10.024 14.361,10.086 C15.334,10.108 17.571,9.232 17.56,8.301" fill="#082B5A"/>
      <path d="M20.018,10.918 C19.676,10.945 15.248,10.906 14.525,10.828 C14.74,10.71 18.523,10.664 19.875,10.705 C19.932,10.767 19.989,10.858 20.018,10.918" fill="#082B5A"/>
      <path d="M13.195,9.568 C13.079,9.568 12.985,9.667 12.985,9.789 C12.985,9.911 13.079,10.01 13.195,10.01 C13.311,10.01 13.405,9.911 13.405,9.789 C13.405,9.667 13.311,9.568 13.195,9.568" fill="#082B5A"/>
      <path d="M13.222,9.672 C13.167,9.672 13.122,9.719 13.122,9.777 C13.122,9.835 13.167,9.883 13.222,9.883 C13.277,9.883 13.322,9.835 13.322,9.777 C13.322,9.719 13.277,9.672 13.222,9.672" fill="#082B5A"/>
      <path d="M13.246,9.695 C13.222,9.695 13.201,9.716 13.201,9.742 C13.201,9.768 13.222,9.789 13.246,9.789 C13.271,9.789 13.291,9.768 13.291,9.742 C13.291,9.716 13.271,9.695 13.246,9.695" fill="#082B5A"/>
      <path d="M13.257,10.238 C13.108,10.238 12.987,10.365 12.987,10.521 C12.987,10.677 13.108,10.804 13.257,10.804 C13.405,10.804 13.526,10.677 13.526,10.521 C13.526,10.365 13.405,10.238 13.257,10.238" fill="#082B5A"/>
      <path d="M13.301,10.292 C13.21,10.292 13.137,10.369 13.137,10.465 C13.137,10.56 13.21,10.637 13.301,10.637 C13.392,10.637 13.465,10.56 13.465,10.465 C13.465,10.369 13.392,10.292 13.301,10.292" fill="#082B5A"/>
      <path d="M13.198,15.568 C13.861,14.427 13.463,12.457 13.301,12.09 C13.446,12.063 13.584,12.012 13.709,11.94 C14.22,12.125 14.734,12.334 15.214,12.565 C15.304,13.201 15.15,14.035 14.911,14.744 C15.203,14.24 15.404,13.619 15.422,12.958 C15.68,14.285 14.827,15.351 14.291,16.007 C13.963,15.827 13.4,15.538 13.198,15.568" fill="#082B5A"/>
      <path d="M12.601,15.964 C11.85,15.743 11.027,15.592 10.316,16.011 C10.486,15.315 11.947,15.419 12.718,15.738 C12.681,15.815 12.642,15.89 12.601,15.964" fill="#082B5A"/>
      <path d="M16.565,17.605 C15.172,17.273 14.137,16.514 12.919,16.093 C12.96,16.022 12.999,15.968 13.035,15.892 C14.218,16.324 15.293,17.104 16.649,17.428 C17.3,17.579 19.139,17.277 18.028,15.903 C19.32,16.954 17.963,17.93 16.565,17.605" fill="#082B5A"/>
      <path d="M11.849,4.92 C12.718,1.793 9.395,-0.227 7.139,1.714 C7.769,1.626 8.499,1.75 9.025,2.144 C5.254,1.12 4.577,4.752 4.777,8.065 C5.25,7.461 5.217,5.64 6.307,5.166 C5.729,5.833 5.516,6.81 5.264,7.584 C4.907,8.676 3.917,9.902 2.699,9.735 C1.784,9.609 1.274,8.34 1.737,7.621 C1.683,8.033 1.715,8.191 1.856,8.566 C1.984,8.003 2.526,7.6 3.077,8.369 C3.275,6.738 2.103,6.952 1.577,7.294 C-0.288,8.505 1.047,10.9 2.838,11.212 C2.745,11.021 2.437,10.352 2.434,9.881 C2.973,11.331 3.989,12.567 5.756,11.746 C6.973,11.181 6.762,9.721 6.57,8.588 C6.967,9.232 7.026,10.132 6.844,10.835 C9.252,9.973 6.25,6.114 9.938,4.382 C9.485,4.776 8.898,5.264 8.599,5.953 C9.488,6.299 10.344,5.586 11.149,5.145 C10.931,5.016 10.544,4.897 10.289,4.935 C10.692,4.663 11.271,5.106 11.538,5.114 C10.962,3.111 8.692,2.819 7.359,3.426 C8.782,2.571 11.239,3.133 11.699,5.089 C11.771,5.062 11.828,5.012 11.849,4.92" fill="#082B5A"/>
      <path d="M16.546,17.871 C15.153,17.538 14.053,16.711 12.835,16.289 C13.382,16.176 15.521,17.7 17.089,17.78 C17.672,17.81 18.314,17.604 18.458,17.162 C18.441,17.731 17.514,18.117 16.546,17.871" fill="#082B5A"/>
      <path d="M10.232,16.335 C10.42,15.708 12.125,15.734 12.522,16.112 C11.695,16.062 10.956,15.91 10.232,16.335" fill="#082B5A"/>
      <path d="M17.602,16.715 C16.556,15.681 16.76,14.31 17.117,13.843 C16.903,13.609 16.625,13.385 16.304,13.172 C15.795,14.175 16.115,15.99 16.919,16.7 C16.704,16.374 16.555,15.985 16.463,15.592 C16.713,16.126 17.058,16.501 17.602,16.715" fill="#082B5A"/>
      <path d="M16.528,16.995 C15.134,16.663 14.389,15.973 13.172,15.552 C13.468,15.382 15.992,16.67 16.612,16.818 C17.216,16.94 18.531,17.041 17.419,15.666 C18.722,16.677 17.941,17.256 16.528,16.995" fill="#082B5A"/>
      <path d="M17.293,16.503 C16.628,15.493 16.662,14.304 17.043,13.866 C16.375,13.902 16.031,15.388 17.293,16.503" fill="#082B5A"/>
      <path d="M13.32,15.46 C13.769,14.715 13.798,13.096 13.383,12.154 C13.808,12.475 14.469,14.395 13.32,15.46" fill="#082B5A"/>
      <path d="M12.805,15.302 C12.953,14.614 13.174,13.358 12.878,12.184 C13.156,12.476 13.48,14.057 12.805,15.302" fill="#082B5A"/>
      <path d="M11.267,6.811 C12.566,6.373 14.714,7.289 15.557,8.34 C15.281,7.629 14.206,6.751 12.982,6.592 C14.2,6.486 15.878,7.383 16.21,8.521 C16.557,8.34 16.907,7.952 17.082,7.738 C16.727,6.84 14.479,4.747 11.267,6.811" fill="#082B5A"/>
      <path d="M12.817,6.252 C13.839,6.035 15.69,6.487 16.979,7.691 C16.263,6.387 14.433,5.611 12.817,6.252" fill="#082B5A"/>
      <path d="M12.357,15.199 C11.917,15.014 11.112,15.042 10.776,15.186 C11.456,14.059 11.851,13.634 11.3,12.335 C10.662,10.833 9.387,9.421 10.956,7.229 C10.548,8.341 10.729,9.252 11.099,10.081 C10.921,9.332 10.994,8.257 11.424,7.426 C11.045,9.299 11.245,10.256 11.635,11.078 C12.29,12.457 13.194,13.63 12.357,15.199" fill="#082B5A"/>
      <path d="M10.739,15.234 C11.003,14.725 12.405,14.897 12.802,15.319 C12.233,15.169 11.393,14.961 10.739,15.234" fill="#082B5A"/>
      <path d="M11.066,14.96 C11.661,13.973 11.942,13.554 11.469,12.418 C10.881,11.005 9.652,9.907 10.619,7.859 C10.319,9.907 10.922,10.604 11.436,11.569 C11.329,11.23 11.225,10.869 11.157,10.462 C11.738,11.745 13.065,14.234 11.066,14.96" fill="#082B5A"/>
      <path d="M19.582,10.635 C19.318,10.138 18.572,9.075 17.621,8.333 C18.413,8.523 19.512,9.948 19.879,10.635 L19.582,10.635" fill="#082B5A"/>
      <path d="M17.995,10.635 C17.751,10.16 17.475,9.653 17.079,9.277 C17.587,9.469 18.013,9.986 18.332,10.635 L17.995,10.635" fill="#082B5A"/>
      <path d="M16.555,10.635 C16.521,10.386 16.4,9.955 16.27,9.7 C16.593,9.847 16.846,10.296 16.973,10.635 L16.555,10.635" fill="#082B5A"/>
      <path d="M15.361,10.635 C15.35,10.47 15.316,10.166 15.246,10.015 C15.452,10.123 15.599,10.415 15.659,10.635 L15.361,10.635" fill="#082B5A"/>
      <path d="M19.638,10.992 C19.391,11.508 18.647,12.633 17.668,13.331 C18.395,13.344 19.69,11.742 19.947,10.992 L19.638,10.992" fill="#082B5A"/>
      <path d="M18.071,10.992 C17.986,11.321 17.551,12.217 17.154,12.593 C17.697,12.407 18.169,11.489 18.347,10.992 L18.071,10.992" fill="#082B5A"/>
      <path d="M16.62,10.992 C16.61,11.199 16.477,11.726 16.317,11.964 C16.638,11.818 16.919,11.393 17.011,10.992 L16.62,10.992" fill="#082B5A"/>
      <path d="M15.399,10.992 C15.406,11.121 15.37,11.41 15.311,11.565 C15.516,11.459 15.631,11.261 15.707,10.992 L15.399,10.992" fill="#082B5A"/>
      <path d="M12.505,5.771 C12.39,5.591 12.18,5.335 11.993,5.19 C11.938,5.212 11.835,5.256 11.734,5.329 C11.746,5.549 11.805,5.803 11.84,6.032 C12.056,5.925 12.275,5.84 12.505,5.771" fill="#082B5A"/>
      <path d="M12.383,5.721 C12.319,5.597 12.128,5.358 11.981,5.254 C11.901,5.514 12.114,5.843 12.383,5.721" fill="#082B5A"/>
      <path d="M11.686,4.84 C12.715,2.281 9.986,0.162 7.927,1.394 C8.486,1.316 9.256,1.791 9.209,2.268 C7.543,1.672 6.206,2.123 5.51,3.808 C6.256,3.203 7.255,2.94 7.512,2.978 C5.509,3.598 4.95,5.069 5.074,7.089 C5.297,6.061 5.81,5.006 6.89,4.861 C6.377,5.453 5.908,6.536 5.683,7.224 C5.482,7.839 5.1,8.594 4.578,9.138 C5.279,8.735 6.014,7.697 6.301,6.79 C6.196,7.984 5.052,9.381 3.817,9.76 C4.418,9.801 5.077,9.72 5.597,9.529 C5.312,9.813 3.763,10.175 2.745,9.803 C1.77,9.551 1.139,8.358 1.838,7.419 C1.814,7.646 1.875,7.929 1.958,8.184 C2.235,7.802 2.712,7.769 3.023,8.264 C3.198,6.817 2.159,7.066 1.692,7.369 C0.798,7.931 0.903,9.229 1.512,10.086 C1.365,9.475 1.291,8.935 1.418,8.713 C1.445,9.664 1.617,10.665 2.624,10.875 C2.541,10.706 2.23,10.039 2.499,9.798 C2.716,10.28 3.008,10.79 3.377,11.187 C3.31,10.9 3.257,10.416 3.45,10.029 C3.246,11.411 4.587,12.237 5.652,11.704 C6.732,11.203 6.77,9.888 6.468,8.331 C7.363,8.548 7.378,9.957 7.067,10.561 C8.979,9.835 5.997,5.575 10.411,4.096 C10.011,4.503 9.328,5.124 9.148,5.766 C9.873,6.004 10.517,5.351 11.01,5.154 C10.997,5.106 10.448,4.966 10.224,4.998 C10.193,4.704 10.736,4.507 10.959,4.561 C10.049,3.155 8.216,4.156 7.369,5 C7.52,4.641 8.292,3.774 9.746,3.599 C9.103,3.277 8.2,3.333 7.221,3.474 C9.728,1.985 11.502,4.095 11.686,4.84" fill="#082B5A"/>
      <path d="M11.791,4.341 C11.689,2.709 10.08,1.433 9.233,1.149 C11.051,1.069 12.102,2.895 11.791,4.341" fill="#082B5A"/>
      <path d="M9.827,2.69 C9.066,2.314 6.831,2.217 6.179,2.827 C6.886,1.755 9.001,1.99 9.827,2.69" fill="#082B5A"/>
      <path d="M10.213,4.046 C8.314,4.546 7.593,6.451 7.782,7.347 C7.324,5.497 8.802,4.032 10.213,4.046" fill="#082B5A"/>
      <path d="M6.457,9.654 C6.274,11.967 4.284,11.796 3.606,10.732 C4.486,12.756 7.001,11.623 6.457,9.654" fill="#082B5A"/>
      <path d="M11.323,4.059 C10.859,3.032 8.89,2.577 7.99,3.089 C8.919,2.231 11.036,2.749 11.323,4.059" fill="#082B5A"/>
      <path d="M7.424,10.276 C7.669,9.432 7.412,7.734 7.121,6.587 C7.573,7.182 8.077,9.194 7.424,10.276" fill="#082B5A"/>
      <path d="M7.634,4.313 C6.271,4.729 5.495,5.327 5.135,6.411 C5.123,5.269 6.115,4.304 7.634,4.313" fill="#082B5A"/>
      <path d="M11.707,3.584 C11.417,2.256 10.492,1.433 9.682,1.326 C10.471,1.217 11.662,2.108 11.707,3.584" fill="#082B5A"/>
      <path d="M9.27,2.387 C8.394,2.275 7.628,2.144 6.818,2.356 C7.367,2.011 8.635,2.094 9.27,2.387" fill="#082B5A"/>
      <path d="M9.586,4.254 C8.91,4.596 8.197,5.259 7.902,6.073 C7.945,5.392 8.812,4.44 9.586,4.254" fill="#082B5A"/>
      <path d="M4.264,9.58 C5.079,9.368 6.006,8.226 6.345,7.021 C6.269,8 5.482,9.615 4.264,9.58" fill="#082B5A"/>
      <path d="M6.05,8.57 C6.822,7.407 6.644,6.484 7.536,5.236 C6.432,6.187 6.658,7.091 6.05,8.57" fill="#082B5A"/>
      <path d="M8.705,1.37 C9.454,1.621 10.789,2.47 11.476,3.719 C11.039,2.381 9.513,1.34 8.705,1.37" fill="#082B5A"/>
      <path d="M10.79,5.136 C10.101,5.002 9.882,5.556 9.31,5.624 C9.696,6.01 10.428,5.304 10.79,5.136" fill="#082B5A"/>
      <path d="M4.049,10.575 C4.807,10.702 5.843,10.061 6.372,9.141 C6.117,9.964 5.115,11.07 4.049,10.575" fill="#082B5A"/>
      <path d="M12.659,9.801 C12.543,9.801 12.448,9.9 12.448,10.022 C12.448,10.144 12.543,10.243 12.659,10.243 C12.775,10.243 12.869,10.144 12.869,10.022 C12.869,9.9 12.775,9.801 12.659,9.801" fill="#082B5A"/>
      <path d="M12.686,9.905 C12.63,9.905 12.585,9.953 12.585,10.011 C12.585,10.069 12.63,10.116 12.686,10.116 C12.741,10.116 12.786,10.069 12.786,10.011 C12.786,9.953 12.741,9.905 12.686,9.905" fill="#082B5A"/>
      <path d="M12.71,9.929 C12.685,9.929 12.665,9.95 12.665,9.976 C12.665,10.002 12.685,10.023 12.71,10.023 C12.735,10.023 12.755,10.002 12.755,9.976 C12.755,9.95 12.735,9.929 12.71,9.929" fill="#082B5A"/>
      <path d="M12.437,10.364 C12.32,10.364 12.226,10.463 12.226,10.586 C12.226,10.708 12.32,10.807 12.437,10.807 C12.553,10.807 12.647,10.708 12.647,10.586 C12.647,10.463 12.553,10.364 12.437,10.364" fill="#082B5A"/>
      <path d="M12.464,10.469 C12.408,10.469 12.363,10.516 12.363,10.574 C12.363,10.632 12.408,10.68 12.464,10.68 C12.519,10.68 12.564,10.632 12.564,10.574 C12.564,10.516 12.519,10.469 12.464,10.469" fill="#082B5A"/>
      <path d="M12.488,10.492 C12.463,10.492 12.443,10.513 12.443,10.539 C12.443,10.565 12.463,10.586 12.488,10.586 C12.513,10.586 12.533,10.565 12.533,10.539 C12.533,10.513 12.513,10.492 12.488,10.492" fill="#082B5A"/>
      <path d="M12.659,10.928 C12.543,10.928 12.448,11.027 12.448,11.149 C12.448,11.271 12.543,11.37 12.659,11.37 C12.775,11.37 12.869,11.271 12.869,11.149 C12.869,11.027 12.775,10.928 12.659,10.928" fill="#082B5A"/>
      <path d="M12.686,11.032 C12.63,11.032 12.586,11.079 12.586,11.138 C12.586,11.196 12.63,11.243 12.686,11.243 C12.741,11.243 12.786,11.196 12.786,11.138 C12.786,11.079 12.741,11.032 12.686,11.032" fill="#082B5A"/>
      <path d="M12.71,11.055 C12.685,11.055 12.665,11.077 12.665,11.103 C12.665,11.129 12.685,11.15 12.71,11.15 C12.735,11.15 12.755,11.129 12.755,11.103 C12.755,11.077 12.735,11.055 12.71,11.055" fill="#082B5A"/>
      <path d="M13.195,11.161 C13.079,11.161 12.985,11.26 12.985,11.382 C12.985,11.505 13.079,11.604 13.195,11.604 C13.311,11.604 13.405,11.505 13.405,11.382 C13.405,11.26 13.311,11.161 13.195,11.161" fill="#082B5A"/>
      <path d="M13.222,11.265 C13.167,11.265 13.122,11.313 13.122,11.371 C13.122,11.429 13.167,11.476 13.222,11.476 C13.277,11.476 13.322,11.429 13.322,11.371 C13.322,11.313 13.277,11.265 13.222,11.265" fill="#082B5A"/>
      <path d="M13.246,11.289 C13.222,11.289 13.201,11.31 13.201,11.336 C13.201,11.362 13.222,11.383 13.246,11.383 C13.271,11.383 13.291,11.362 13.291,11.336 C13.291,11.31 13.271,11.289 13.246,11.289" fill="#082B5A"/>
      <path d="M13.732,10.928 C13.615,10.928 13.521,11.027 13.521,11.149 C13.521,11.271 13.615,11.37 13.732,11.37 C13.848,11.37 13.942,11.271 13.942,11.149 C13.942,11.027 13.848,10.928 13.732,10.928" fill="#082B5A"/>
      <path d="M13.759,11.032 C13.703,11.032 13.658,11.079 13.658,11.138 C13.658,11.196 13.703,11.243 13.759,11.243 C13.814,11.243 13.859,11.196 13.859,11.138 C13.859,11.079 13.814,11.032 13.759,11.032" fill="#082B5A"/>
      <path d="M13.783,11.055 C13.758,11.055 13.738,11.077 13.738,11.103 C13.738,11.129 13.758,11.15 13.783,11.15 C13.808,11.15 13.828,11.129 13.828,11.103 C13.828,11.077 13.808,11.055 13.783,11.055" fill="#082B5A"/>
      <path d="M13.732,9.801 C13.615,9.801 13.521,9.9 13.521,10.022 C13.521,10.144 13.615,10.243 13.732,10.243 C13.848,10.243 13.942,10.144 13.942,10.022 C13.942,9.9 13.848,9.801 13.732,9.801" fill="#082B5A"/>
      <path d="M13.759,9.905 C13.703,9.905 13.658,9.952 13.658,10.011 C13.658,10.069 13.703,10.116 13.759,10.116 C13.814,10.116 13.859,10.069 13.859,10.011 C13.859,9.952 13.814,9.905 13.759,9.905" fill="#082B5A"/>
      <path d="M13.783,9.928 C13.758,9.928 13.738,9.95 13.738,9.976 C13.738,10.002 13.758,10.023 13.783,10.023 C13.808,10.023 13.828,10.002 13.828,9.976 C13.828,9.95 13.808,9.928 13.783,9.928" fill="#082B5A"/>
      <path d="M13.954,10.365 C13.837,10.365 13.743,10.464 13.743,10.586 C13.743,10.708 13.837,10.807 13.954,10.807 C14.07,10.807 14.164,10.708 14.164,10.586 C14.164,10.464 14.07,10.365 13.954,10.365" fill="#082B5A"/>
      <path d="M13.981,10.469 C13.925,10.469 13.88,10.516 13.88,10.574 C13.88,10.632 13.925,10.68 13.981,10.68 C14.036,10.68 14.081,10.632 14.081,10.574 C14.081,10.516 14.036,10.469 13.981,10.469" fill="#082B5A"/>
      <path d="M14.005,10.492 C13.98,10.492 13.96,10.513 13.96,10.539 C13.96,10.565 13.98,10.586 14.005,10.586 C14.03,10.586 14.05,10.565 14.05,10.539 C14.05,10.513 14.03,10.492 14.005,10.492" fill="#082B5A"/>
      <path d="M11.318,14.771 C12.001,13.672 11.759,12.82 11.26,11.613 C11.834,12.445 12.467,13.706 11.318,14.771" fill="#082B5A"/>
      <path d="M17.139,7.73 C16.58,8.595 15.329,9.2 14.08,9.609 C14.594,9.655 17.07,8.815 17.139,7.73" fill="#082B5A"/>
    </g>
    <g>
      <path d="M19.72,11.101 C19.337,11.933 18.619,12.714 18.011,13.219 C17.9,13.084 17.753,12.945 17.577,12.806 C18.042,12.339 18.487,11.55 18.597,11.101 L19.72,11.101" fill="#FFFFFF"/>
      <path d="M18.14,11.101 C17.919,11.699 17.606,12.194 17.299,12.601 C17.126,12.482 16.936,12.364 16.734,12.25 C16.97,11.917 17.169,11.487 17.267,11.101 L18.14,11.101" fill="#FFFFFF"/>
      <path d="M16.718,11.101 C16.667,11.46 16.562,11.788 16.382,12.061 C16.186,11.961 15.983,11.866 15.778,11.779 C15.865,11.564 15.935,11.332 15.972,11.101 L16.718,11.101" fill="#FFFFFF"/>
      <path d="M15.512,11.101 C15.486,11.288 15.44,11.46 15.383,11.62 C15.18,11.544 14.978,11.476 14.783,11.419 C14.808,11.315 14.828,11.209 14.843,11.101 L15.512,11.101 z M14.779,11.635 C14.761,11.633 14.742,11.632 14.722,11.631 L14.726,11.617 L14.779,11.635" fill="#FFFFFF"/>
      <path d="M16.681,10.744 C16.596,10.417 16.501,10.138 16.334,9.842 C16.139,9.925 15.936,10 15.731,10.064 C15.814,10.279 15.868,10.512 15.905,10.744 L16.681,10.744" fill="#FFFFFF"/>
      <path d="M15.506,10.744 C15.464,10.546 15.422,10.369 15.347,10.17 C15.136,10.221 14.925,10.26 14.72,10.286 C14.766,10.433 14.8,10.588 14.822,10.744 L15.506,10.744" fill="#FFFFFF"/>
      <path d="M19.721,10.744 C19.286,9.987 18.541,9.16 17.923,8.67 C17.81,8.851 17.647,9.025 17.448,9.189 C17.931,9.63 18.429,10.354 18.593,10.744 L19.721,10.744" fill="#FFFFFF"/>
      <path d="M18.127,10.744 C17.862,10.213 17.533,9.79 17.182,9.386 C17.028,9.489 16.861,9.587 16.684,9.678 C16.889,9.965 17.125,10.382 17.225,10.744 L18.127,10.744" fill="#FFFFFF"/>
    </g>
  </g>
</svg>
