<?xml version="1.0" encoding="UTF-8"?>
<!DOCTYPE svg PUBLIC "-//W3C//DTD SVG 1.1//EN" "http://www.w3.org/Graphics/SVG/1.1/DTD/svg11.dtd">
<svg version="1.1" xmlns="http://www.w3.org/2000/svg" xmlns:xlink="http://www.w3.org/1999/xlink" x="0" y="0" width="137.254" height="48.666" viewBox="0, 0, 137.254, 48.666">
  <g id="Layer_1">
    <path d="M37.395,22.258 L41.245,22.258 L41.245,26.908 L37.42,26.908 L37.42,33.183 L32.02,33.183 L32.02,15.483 L41.595,15.483 L41.595,20.383 L37.395,20.383 z" fill="#376FAE"/>
    <path d="M49.02,26.833 L48.57,26.833 L48.57,33.183 L43.37,33.183 L43.37,15.483 L49.945,15.483 Q51.47,15.483 52.607,15.883 Q53.745,16.283 54.47,17.033 Q55.195,17.783 55.557,18.846 Q55.92,19.908 55.92,21.233 Q55.92,22.133 55.72,22.858 Q55.52,23.583 55.22,24.146 Q54.92,24.708 54.545,25.083 Q54.17,25.458 53.795,25.633 L56.62,33.183 L50.895,33.183 z M48.57,20.008 L48.57,23.108 L49.02,23.108 Q49.245,23.108 49.52,23.046 Q49.795,22.983 50.02,22.808 Q50.245,22.633 50.395,22.333 Q50.545,22.033 50.545,21.558 Q50.545,21.058 50.407,20.758 Q50.27,20.458 50.057,20.283 Q49.845,20.108 49.607,20.058 Q49.37,20.008 49.17,20.008 z" fill="#376FAE"/>
    <path d="M57.92,15.483 L63.42,15.483 L63.42,33.183 L57.92,33.183 z" fill="#376FAE"/>
    <path d="M66.02,15.483 L75.47,15.483 L75.47,20.258 L71.195,20.258 L71.195,22.033 L75.07,22.033 L75.07,26.458 L71.195,26.458 L71.195,28.333 L75.795,28.333 L75.795,33.183 L66.02,33.183 z" fill="#376FAE"/>
    <path d="M93.532,33.183 L93.532,15.483 L99.232,15.483 Q101.407,15.483 102.92,16.146 Q104.432,16.808 105.37,17.983 Q106.307,19.158 106.732,20.796 Q107.157,22.433 107.157,24.383 Q107.157,26.308 106.732,27.921 Q106.307,29.533 105.37,30.696 Q104.432,31.858 102.92,32.521 Q101.407,33.183 99.232,33.183 z M101.682,24.383 Q101.682,22.408 101.057,21.321 Q100.432,20.233 99.332,20.233 L99.007,20.233 L99.007,28.433 L99.332,28.433 Q100.432,28.433 101.057,27.346 Q101.682,26.258 101.682,24.383 z" fill="#376FAE"/>
    <g>
      <path d="M82.425,24.833 L82.35,24.833 L82.55,33.183 L77.725,33.183 L77.725,15.483 L83.5,15.483 L86.275,24.108 L86.375,24.108 L86.225,15.483 L90.875,15.483 L90.875,33.183 L85.25,33.183 z" fill="#082B5A"/>
      <path d="M113.075,33.633 Q112.175,33.633 111.362,33.471 Q110.55,33.308 109.862,33.033 Q109.175,32.758 108.6,32.408 Q108.025,32.058 107.625,31.708 L110.225,27.583 Q110.8,28.058 111.487,28.358 Q112.175,28.658 112.85,28.658 Q113.275,28.658 113.562,28.446 Q113.85,28.233 113.85,27.833 Q113.85,27.358 113.437,27.033 Q113.025,26.708 112.15,26.283 Q111.4,25.933 110.725,25.496 Q110.05,25.058 109.525,24.433 Q109,23.808 108.687,22.971 Q108.375,22.133 108.375,21.008 Q108.375,19.383 108.95,18.246 Q109.525,17.108 110.412,16.396 Q111.3,15.683 112.387,15.358 Q113.475,15.033 114.525,15.033 Q116.125,15.033 117.387,15.533 Q118.65,16.033 119.5,16.833 L116.825,20.908 Q116.4,20.483 115.825,20.196 Q115.25,19.908 114.725,19.908 Q114.325,19.908 114,20.108 Q113.675,20.308 113.675,20.808 Q113.675,21.208 114.012,21.458 Q114.35,21.708 115.325,22.183 Q115.875,22.458 116.55,22.871 Q117.225,23.283 117.825,23.921 Q118.425,24.558 118.837,25.458 Q119.25,26.358 119.25,27.583 Q119.25,29.183 118.725,30.333 Q118.2,31.483 117.325,32.208 Q116.45,32.933 115.337,33.283 Q114.225,33.633 113.075,33.633 z" fill="#082B5A"/>
    </g>
    <path d="M22.063,15.582 C22.063,15.582 25.584,17.443 30.23,18.837 C30.23,18.837 31.877,28.647 22.087,33.084 L22.033,33.084 C12.246,28.647 13.893,18.837 13.893,18.837 C18.588,17.467 22.058,15.582 22.058,15.582 z" fill="#082B5A" display="none"/>
    <path d="M23.296,15.582 L16.258,16.819 L16.258,26.471 C16.258,27.214 16.606,28.016 17.294,28.856 C17.905,29.599 18.769,30.36 19.863,31.119 C21.228,32.062 22.62,32.765 23.296,33.084 C23.972,32.765 25.364,32.062 26.729,31.119 C27.823,30.36 28.686,29.599 29.296,28.856 C29.985,28.015 30.334,27.214 30.334,26.471 L30.334,16.819 z" fill="#082B5A"/>
    <g id="canstockphoto11111189">
      <path d="M26.983,28.349 C26.092,28.136 25.34,27.595 24.546,27.355 C24.038,27.201 23.512,27.198 22.939,27.522 C22.929,26.82 23.365,26.327 23.601,25.923 C23.872,25.46 23.693,25.005 23.456,24.56 C23.077,23.85 22.542,23.228 23.213,21.882 C23.372,21.578 23.612,21.337 23.9,21.158 C23.879,20.984 23.872,20.806 23.883,20.624 C23.302,20.922 22.782,21.525 22.132,21.137 C21.736,22.121 22.361,23.759 21.156,24.113 C21.034,24.52 19.952,25.308 18.77,24.3 C17.623,24.1 16.779,22.645 17.866,21.727 C18.314,21.359 19.373,21.366 19.009,22.73 C18.786,22.446 18.546,22.338 18.442,22.442 C17.843,23.039 19.22,23.568 19.824,22.45 C19.698,21.151 19.733,19.174 21.078,18.616 C22.353,16.956 24.892,18.321 24.273,20.423 C24.423,20.545 24.574,20.703 24.671,20.846 C25.767,20.598 27.072,20.995 27.503,22.053 C28.143,22.331 28.878,23.254 29.23,23.963 C28.865,24.844 27.957,25.675 27.503,25.797 C27.348,26.079 27.311,26.246 27.334,26.429 C28.99,26.965 28.363,28.595 26.983,28.349" fill="#FFFFFE"/>
      <path d="M24.498,27.136 C24.067,27.026 23.618,27.024 23.117,27.244 C23.148,27.069 23.215,26.903 23.299,26.744 C23.797,26.591 24.244,26.657 24.679,26.814 C24.627,26.927 24.566,27.035 24.498,27.136" fill="#FFFFFE"/>
      <path d="M26.959,28.142 C26.104,27.938 25.392,27.407 24.636,27.175 C24.704,27.081 24.764,26.977 24.816,26.866 C25.473,27.132 26.113,27.576 26.87,27.757 C27.904,27.997 28.444,27.292 27.467,26.767 C28.221,27.264 27.838,27.828 26.881,27.605 C26.141,27.429 25.514,27.001 24.873,26.734 C25.208,25.884 25.124,24.705 24.714,24.206 C25.034,24.821 25.075,25.85 24.738,26.681 C24.314,26.521 23.879,26.444 23.398,26.567 C23.816,25.875 24.104,25.571 23.741,24.773 C23.374,23.967 22.677,23.291 23.339,22.035 C24.109,20.572 26.65,20.613 27.334,22.133 C27.213,22.82 25.599,23.313 25.289,23.314 C25.3,23.349 25.294,23.366 25.305,23.401 C26.18,23.347 27.34,22.812 27.478,22.22 C28.003,22.557 28.764,23.32 29.028,23.964 C28.699,24.758 27.928,25.414 27.482,25.604 C27.285,25.102 25.873,24.38 25.017,24.265 C25.006,24.3 25.011,24.317 25,24.352 C25.902,24.571 26.996,25.187 27.359,25.69 C27.012,26.101 27.114,26.981 27.513,27.299 C27.39,27.018 27.303,26.854 27.286,26.576 C28.692,27.118 28.244,28.371 26.959,28.142" fill="#FFFFFE"/>
      <path d="M24.951,24.667 C24.891,24.484 24.812,24.325 24.714,24.206 C24.785,24.343 24.843,24.501 24.885,24.672 L24.87,24.672 C24.441,24.675 24.093,24.313 24.093,23.861 C24.093,23.411 24.441,23.042 24.87,23.039 C25.087,23.037 25.282,23.128 25.423,23.277 C25.366,23.294 25.32,23.306 25.289,23.314 C25.16,23.563 25.111,23.844 25.017,24.265 C25.006,24.3 25.011,24.317 25,24.352 C25.902,24.571 26.996,25.187 27.359,25.69 C27.341,25.711 27.324,25.734 27.309,25.758 C26.914,25.282 26.068,24.872 25.237,24.572 C25.15,24.622 25.054,24.655 24.951,24.667" fill="#FFFFFE"/>
      <path d="M24.911,23.018 C24.504,23.018 24.174,23.364 24.174,23.791 C24.174,24.219 24.504,24.565 24.911,24.565 C25.318,24.565 25.648,24.219 25.648,23.791 C25.648,23.364 25.318,23.018 24.911,23.018" fill="#FFFFFE"/>
      <path d="M24.933,23.14 C24.602,23.14 24.334,23.422 24.334,23.769 C24.334,24.116 24.602,24.398 24.933,24.398 C25.263,24.398 25.531,24.116 25.531,23.769 C25.531,23.422 25.263,23.14 24.933,23.14" fill="#FFFFFE"/>
      <path d="M24.96,23.185 C24.662,23.185 24.421,23.438 24.421,23.751 C24.421,24.064 24.662,24.318 24.96,24.318 C25.258,24.318 25.5,24.064 25.5,23.751 C25.5,23.438 25.258,23.185 24.96,23.185" fill="#FFFFFE"/>
      <path d="M24.933,23.455 C24.768,23.455 24.634,23.595 24.634,23.769 C24.634,23.942 24.768,24.083 24.933,24.083 C25.098,24.083 25.231,23.942 25.231,23.769 C25.231,23.595 25.098,23.455 24.933,23.455" fill="#FFFFFE"/>
      <path d="M24.952,23.536 C24.841,23.536 24.751,23.631 24.751,23.748 C24.751,23.865 24.841,23.96 24.952,23.96 C25.064,23.96 25.154,23.865 25.154,23.748 C25.154,23.631 25.064,23.536 24.952,23.536" fill="#FFFFFE"/>
      <path d="M28.687,24.01 C28.46,24.504 28.034,24.967 27.674,25.266 C27.608,25.186 27.52,25.104 27.416,25.021 C27.692,24.744 27.956,24.276 28.021,24.01 L28.687,24.01" fill="#FFFFFE"/>
      <path d="M27.75,24.01 C27.619,24.364 27.434,24.658 27.252,24.9 C27.149,24.829 27.036,24.759 26.916,24.691 C27.056,24.494 27.174,24.239 27.232,24.01 L27.75,24.01" fill="#FFFFFE"/>
      <path d="M26.907,24.01 C26.877,24.223 26.814,24.417 26.708,24.579 C26.591,24.52 26.471,24.464 26.349,24.412 C26.401,24.284 26.442,24.147 26.465,24.01 L26.907,24.01" fill="#FFFFFE"/>
      <path d="M26.192,24.01 C26.176,24.121 26.149,24.223 26.115,24.318 C25.995,24.272 25.875,24.232 25.759,24.198 C25.774,24.137 25.786,24.074 25.795,24.01 L26.192,24.01 z M25.757,24.327 C25.746,24.326 25.735,24.325 25.723,24.324 L25.726,24.316 L25.757,24.327" fill="#FFFFFE"/>
      <path d="M26.885,23.798 C26.835,23.604 26.778,23.439 26.679,23.263 C26.563,23.312 26.443,23.357 26.321,23.395 C26.371,23.522 26.403,23.661 26.424,23.798 L26.885,23.798" fill="#FFFFFE"/>
      <path d="M26.188,23.798 C26.163,23.68 26.138,23.576 26.094,23.458 C25.969,23.488 25.844,23.511 25.722,23.526 C25.749,23.613 25.769,23.705 25.782,23.798 L26.188,23.798" fill="#FFFFFE"/>
      <path d="M28.688,23.798 C28.43,23.349 27.988,22.859 27.622,22.568 C27.555,22.675 27.458,22.779 27.339,22.876 C27.626,23.137 27.921,23.567 28.019,23.798 L28.688,23.798" fill="#FFFFFE"/>
      <path d="M27.742,23.798 C27.585,23.483 27.39,23.232 27.182,22.992 C27.091,23.054 26.992,23.112 26.887,23.166 C27.008,23.336 27.148,23.583 27.208,23.798 L27.742,23.798" fill="#FFFFFE"/>
      <path d="M27.521,25.518 C27.177,24.981 26.429,24.649 25.518,24.316 C25.53,24.281 25.585,24.246 25.596,24.211 C26.173,24.307 27.561,25.003 27.521,25.518" fill="#FFFFFE"/>
      <path d="M27.521,22.414 C27.177,22.885 26.479,23.239 25.569,23.4 C25.58,23.437 25.613,23.436 25.624,23.473 C26.201,23.485 27.528,22.966 27.521,22.414" fill="#FFFFFE"/>
      <path d="M28.979,23.966 C28.777,23.982 26.15,23.959 25.721,23.913 C25.849,23.843 28.093,23.816 28.894,23.839 C28.928,23.876 28.962,23.931 28.979,23.966" fill="#FFFFFE"/>
      <path d="M24.933,23.165 C24.864,23.165 24.808,23.224 24.808,23.296 C24.808,23.369 24.864,23.427 24.933,23.427 C25.002,23.427 25.057,23.369 25.057,23.296 C25.057,23.224 25.002,23.165 24.933,23.165" fill="#FFFFFE"/>
      <path d="M24.949,23.227 C24.916,23.227 24.889,23.255 24.889,23.289 C24.889,23.324 24.916,23.352 24.949,23.352 C24.982,23.352 25.008,23.324 25.008,23.289 C25.008,23.255 24.982,23.227 24.949,23.227" fill="#FFFFFE"/>
      <path d="M24.963,23.241 C24.948,23.241 24.936,23.253 24.936,23.269 C24.936,23.284 24.948,23.297 24.963,23.297 C24.978,23.297 24.99,23.284 24.99,23.269 C24.99,23.253 24.978,23.241 24.963,23.241" fill="#FFFFFE"/>
      <path d="M24.969,23.563 C24.881,23.563 24.81,23.638 24.81,23.731 C24.81,23.823 24.881,23.898 24.969,23.898 C25.057,23.898 25.129,23.823 25.129,23.731 C25.129,23.638 25.057,23.563 24.969,23.563" fill="#FFFFFE"/>
      <path d="M24.995,23.595 C24.942,23.595 24.898,23.641 24.898,23.697 C24.898,23.754 24.942,23.799 24.995,23.799 C25.049,23.799 25.093,23.754 25.093,23.697 C25.093,23.641 25.049,23.595 24.995,23.595" fill="#FFFFFE"/>
      <path d="M24.935,26.724 C25.328,26.047 25.092,24.879 24.996,24.661 C25.082,24.645 25.163,24.615 25.237,24.572 C25.541,24.682 25.846,24.806 26.13,24.943 C26.183,25.32 26.092,25.814 25.95,26.235 C26.124,25.936 26.242,25.568 26.253,25.176 C26.406,25.963 25.901,26.595 25.582,26.984 C25.388,26.877 25.054,26.706 24.935,26.724" fill="#FFFFFE"/>
      <path d="M24.58,26.959 C24.135,26.828 23.647,26.738 23.225,26.986 C23.326,26.573 24.193,26.635 24.65,26.825 C24.628,26.87 24.604,26.915 24.58,26.959" fill="#FFFFFE"/>
      <path d="M26.931,27.932 C26.105,27.735 25.491,27.285 24.769,27.035 C24.793,26.993 24.816,26.961 24.838,26.916 C25.539,27.172 26.177,27.635 26.981,27.827 C27.367,27.917 28.458,27.737 27.799,26.922 C28.565,27.546 27.76,28.125 26.931,27.932" fill="#FFFFFE"/>
      <path d="M24.134,20.409 C24.65,18.554 22.679,17.356 21.341,18.507 C21.715,18.455 22.147,18.529 22.46,18.762 C20.223,18.155 19.822,20.309 19.94,22.274 C20.221,21.916 20.201,20.836 20.848,20.555 C20.504,20.95 20.379,21.529 20.229,21.989 C20.017,22.637 19.43,23.364 18.708,23.264 C18.165,23.19 17.863,22.437 18.137,22.011 C18.105,22.255 18.124,22.349 18.208,22.571 C18.283,22.237 18.605,21.998 18.932,22.454 C19.049,21.487 18.354,21.614 18.042,21.817 C16.936,22.535 17.728,23.955 18.79,24.14 C18.735,24.027 18.552,23.631 18.551,23.351 C18.87,24.211 19.473,24.944 20.521,24.457 C21.242,24.122 21.117,23.256 21.003,22.584 C21.239,22.966 21.274,23.5 21.166,23.917 C22.594,23.405 20.814,21.117 23.001,20.09 C22.732,20.324 22.384,20.613 22.207,21.021 C22.734,21.226 23.242,20.803 23.719,20.542 C23.59,20.466 23.361,20.395 23.209,20.418 C23.448,20.257 23.792,20.519 23.95,20.524 C23.608,19.336 22.262,19.162 21.472,19.523 C22.315,19.015 23.772,19.349 24.046,20.509 C24.088,20.493 24.122,20.463 24.134,20.409" fill="#FFFFFE"/>
      <path d="M26.92,28.09 C26.094,27.892 25.441,27.401 24.719,27.152 C25.044,27.084 26.312,27.988 27.242,28.036 C27.588,28.054 27.968,27.931 28.054,27.669 C28.044,28.007 27.494,28.236 26.92,28.09" fill="#FFFFFE"/>
      <path d="M23.175,27.179 C23.287,26.807 24.298,26.822 24.533,27.047 C24.043,27.017 23.605,26.926 23.175,27.179" fill="#FFFFFE"/>
      <path d="M27.546,27.404 C26.926,26.791 27.047,25.978 27.259,25.701 C27.132,25.562 26.967,25.429 26.777,25.303 C26.475,25.897 26.664,26.974 27.141,27.395 C27.014,27.202 26.925,26.971 26.871,26.738 C27.019,27.054 27.224,27.277 27.546,27.404" fill="#FFFFFE"/>
      <path d="M26.909,27.57 C26.083,27.373 25.641,26.964 24.919,26.714 C25.095,26.614 26.591,27.377 26.959,27.465 C27.317,27.537 28.097,27.597 27.438,26.782 C28.21,27.381 27.747,27.725 26.909,27.57" fill="#FFFFFE"/>
      <path d="M27.363,27.278 C26.968,26.679 26.989,25.974 27.215,25.714 C26.819,25.736 26.615,26.617 27.363,27.278" fill="#FFFFFE"/>
      <path d="M25.007,26.66 C25.273,26.218 25.291,25.257 25.044,24.699 C25.296,24.889 25.688,26.028 25.007,26.66" fill="#FFFFFE"/>
      <path d="M24.701,26.566 C24.789,26.158 24.92,25.413 24.745,24.717 C24.91,24.89 25.102,25.828 24.701,26.566" fill="#FFFFFE"/>
      <path d="M23.789,21.53 C24.559,21.27 25.834,21.814 26.333,22.437 C26.17,22.015 25.532,21.495 24.806,21.4 C25.529,21.337 26.524,21.87 26.721,22.544 C26.927,22.437 27.134,22.207 27.238,22.08 C27.028,21.547 25.694,20.306 23.789,21.53" fill="#FFFFFE"/>
      <path d="M24.709,21.199 C25.315,21.07 26.413,21.338 27.177,22.052 C26.752,21.279 25.667,20.819 24.709,21.199" fill="#FFFFFE"/>
      <path d="M24.435,26.505 C24.174,26.395 23.697,26.412 23.498,26.497 C23.901,25.829 24.135,25.577 23.809,24.806 C23.43,23.916 22.674,23.078 23.605,21.778 C23.363,22.438 23.47,22.978 23.69,23.469 C23.584,23.025 23.627,22.388 23.882,21.895 C23.657,23.006 23.776,23.573 24.007,24.061 C24.396,24.879 24.932,25.575 24.435,26.505" fill="#FFFFFE"/>
      <path d="M23.476,26.525 C23.632,26.224 24.464,26.326 24.7,26.576 C24.362,26.487 23.864,26.364 23.476,26.525" fill="#FFFFFE"/>
      <path d="M23.67,26.363 C24.023,25.778 24.189,25.529 23.909,24.856 C23.56,24.018 22.831,23.366 23.405,22.152 C23.227,23.366 23.585,23.78 23.889,24.352 C23.826,24.151 23.764,23.937 23.724,23.696 C24.068,24.456 24.855,25.932 23.67,26.363" fill="#FFFFFE"/>
      <path d="M28.721,23.798 C28.564,23.504 28.121,22.873 27.558,22.433 C28.027,22.546 28.679,23.391 28.897,23.798 L28.721,23.798" fill="#FFFFFE"/>
      <path d="M27.779,23.798 C27.635,23.516 27.471,23.215 27.236,22.993 C27.537,23.107 27.79,23.413 27.979,23.798 L27.779,23.798" fill="#FFFFFE"/>
      <path d="M26.926,23.798 C26.905,23.65 26.833,23.395 26.756,23.244 C26.948,23.331 27.098,23.597 27.173,23.798 L26.926,23.798" fill="#FFFFFE"/>
      <path d="M26.217,23.798 C26.211,23.7 26.19,23.52 26.149,23.431 C26.271,23.494 26.358,23.667 26.394,23.798 L26.217,23.798" fill="#FFFFFE"/>
      <path d="M28.754,24.01 C28.608,24.316 28.166,24.983 27.586,25.397 C28.017,25.405 28.785,24.455 28.937,24.01 L28.754,24.01" fill="#FFFFFE"/>
      <path d="M27.824,24.01 C27.774,24.205 27.516,24.737 27.28,24.96 C27.603,24.849 27.883,24.304 27.988,24.01 L27.824,24.01" fill="#FFFFFE"/>
      <path d="M26.964,24.01 C26.958,24.133 26.879,24.445 26.784,24.586 C26.975,24.5 27.141,24.248 27.196,24.01 L26.964,24.01" fill="#FFFFFE"/>
      <path d="M26.24,24.01 C26.244,24.086 26.222,24.258 26.188,24.35 C26.309,24.287 26.377,24.169 26.423,24.01 L26.24,24.01" fill="#FFFFFE"/>
      <path d="M24.523,20.914 C24.455,20.806 24.331,20.655 24.22,20.569 C24.187,20.582 24.126,20.608 24.066,20.651 C24.073,20.782 24.109,20.932 24.129,21.068 C24.257,21.005 24.387,20.954 24.523,20.914" fill="#FFFFFE"/>
      <path d="M24.451,20.884 C24.413,20.81 24.3,20.668 24.213,20.607 C24.165,20.761 24.292,20.956 24.451,20.884" fill="#FFFFFE"/>
      <path d="M24.038,20.361 C24.648,18.843 23.03,17.587 21.808,18.318 C22.14,18.271 22.596,18.553 22.568,18.836 C21.581,18.483 20.788,18.75 20.375,19.749 C20.817,19.391 21.41,19.234 21.562,19.257 C20.374,19.624 20.043,20.497 20.116,21.695 C20.249,21.085 20.553,20.46 21.193,20.374 C20.889,20.725 20.611,21.367 20.478,21.775 C20.358,22.14 20.132,22.588 19.822,22.91 C20.238,22.672 20.674,22.056 20.844,21.518 C20.782,22.226 20.103,23.054 19.371,23.279 C19.727,23.303 20.118,23.256 20.427,23.142 C20.258,23.311 19.339,23.526 18.735,23.305 C18.157,23.155 17.782,22.447 18.197,21.891 C18.183,22.026 18.219,22.193 18.268,22.344 C18.432,22.118 18.715,22.099 18.9,22.392 C19.004,21.534 18.387,21.681 18.11,21.861 C17.581,22.195 17.642,22.964 18.004,23.473 C17.917,23.11 17.873,22.79 17.948,22.658 C17.964,23.222 18.066,23.816 18.663,23.941 C18.614,23.84 18.429,23.445 18.589,23.302 C18.718,23.588 18.891,23.89 19.11,24.125 C19.07,23.955 19.039,23.668 19.153,23.439 C19.032,24.259 19.827,24.748 20.459,24.432 C21.099,24.135 21.122,23.355 20.943,22.432 C21.474,22.56 21.483,23.396 21.298,23.754 C22.432,23.324 20.664,20.797 23.281,19.92 C23.044,20.162 22.639,20.53 22.533,20.91 C22.962,21.051 23.344,20.664 23.637,20.548 C23.629,20.519 23.303,20.436 23.171,20.455 C23.152,20.281 23.474,20.164 23.606,20.196 C23.067,19.362 21.979,19.956 21.477,20.456 C21.567,20.243 22.025,19.729 22.887,19.625 C22.505,19.434 21.97,19.467 21.39,19.551 C22.877,18.668 23.929,19.92 24.038,20.361" fill="#FFFFFE"/>
      <path d="M24.1,20.066 C24.039,19.097 23.085,18.34 22.583,18.172 C23.661,18.125 24.284,19.208 24.1,20.066" fill="#FFFFFE"/>
      <path d="M22.935,19.086 C22.484,18.863 21.158,18.806 20.772,19.167 C21.191,18.531 22.445,18.671 22.935,19.086" fill="#FFFFFE"/>
      <path d="M23.164,19.89 C22.038,20.187 21.61,21.317 21.722,21.848 C21.451,20.751 22.327,19.882 23.164,19.89" fill="#FFFFFE"/>
      <path d="M20.936,23.216 C20.828,24.588 19.648,24.487 19.245,23.856 C19.768,25.056 21.259,24.384 20.936,23.216" fill="#FFFFFE"/>
      <path d="M23.822,19.898 C23.547,19.289 22.379,19.019 21.846,19.323 C22.397,18.814 23.652,19.121 23.822,19.898" fill="#FFFFFE"/>
      <path d="M21.51,23.585 C21.655,23.085 21.503,22.078 21.33,21.398 C21.599,21.75 21.897,22.944 21.51,23.585" fill="#FFFFFE"/>
      <path d="M21.634,20.049 C20.826,20.295 20.366,20.65 20.152,21.293 C20.145,20.616 20.734,20.044 21.634,20.049" fill="#FFFFFE"/>
      <path d="M24.05,19.616 C23.878,18.829 23.329,18.34 22.849,18.277 C23.317,18.213 24.023,18.741 24.05,19.616" fill="#FFFFFE"/>
      <path d="M22.605,18.907 C22.085,18.84 21.631,18.762 21.151,18.888 C21.476,18.683 22.228,18.733 22.605,18.907" fill="#FFFFFE"/>
      <path d="M22.792,20.014 C22.391,20.217 21.969,20.61 21.793,21.092 C21.819,20.689 22.333,20.124 22.792,20.014" fill="#FFFFFE"/>
      <path d="M19.636,23.172 C20.119,23.047 20.669,22.369 20.87,21.655 C20.825,22.235 20.358,23.193 19.636,23.172" fill="#FFFFFE"/>
      <path d="M20.695,22.573 C21.153,21.884 21.047,21.336 21.576,20.596 C20.922,21.16 21.056,21.696 20.695,22.573" fill="#FFFFFE"/>
      <path d="M22.27,18.303 C22.714,18.452 23.506,18.956 23.913,19.696 C23.654,18.903 22.749,18.285 22.27,18.303" fill="#FFFFFE"/>
      <path d="M23.506,20.537 C23.098,20.457 22.968,20.786 22.628,20.826 C22.858,21.055 23.292,20.636 23.506,20.537" fill="#FFFFFE"/>
      <path d="M19.508,23.763 C19.958,23.838 20.572,23.458 20.886,22.912 C20.735,23.4 20.14,24.056 19.508,23.763" fill="#FFFFFE"/>
      <path d="M24.615,23.304 C24.546,23.304 24.49,23.362 24.49,23.435 C24.49,23.507 24.546,23.566 24.615,23.566 C24.684,23.566 24.739,23.507 24.739,23.435 C24.739,23.362 24.684,23.304 24.615,23.304" fill="#FFFFFE"/>
      <path d="M24.631,23.365 C24.598,23.365 24.571,23.393 24.571,23.428 C24.571,23.462 24.598,23.49 24.631,23.49 C24.663,23.49 24.69,23.462 24.69,23.428 C24.69,23.393 24.663,23.365 24.631,23.365" fill="#FFFFFE"/>
      <path d="M24.645,23.379 C24.63,23.379 24.618,23.392 24.618,23.407 C24.618,23.423 24.63,23.435 24.645,23.435 C24.66,23.435 24.672,23.423 24.672,23.407 C24.672,23.392 24.66,23.379 24.645,23.379" fill="#FFFFFE"/>
      <path d="M24.483,23.638 C24.414,23.638 24.358,23.696 24.358,23.769 C24.358,23.841 24.414,23.9 24.483,23.9 C24.552,23.9 24.608,23.841 24.608,23.769 C24.608,23.696 24.552,23.638 24.483,23.638" fill="#FFFFFE"/>
      <path d="M24.499,23.699 C24.466,23.699 24.439,23.727 24.439,23.762 C24.439,23.797 24.466,23.825 24.499,23.825 C24.532,23.825 24.558,23.797 24.558,23.762 C24.558,23.727 24.532,23.699 24.499,23.699" fill="#FFFFFE"/>
      <path d="M24.513,23.713 C24.499,23.713 24.487,23.726 24.487,23.741 C24.487,23.757 24.499,23.769 24.513,23.769 C24.528,23.769 24.54,23.757 24.54,23.741 C24.54,23.726 24.528,23.713 24.513,23.713" fill="#FFFFFE"/>
      <path d="M24.615,23.972 C24.546,23.972 24.49,24.031 24.49,24.103 C24.49,24.175 24.546,24.234 24.615,24.234 C24.684,24.234 24.74,24.175 24.74,24.103 C24.74,24.031 24.684,23.972 24.615,23.972" fill="#FFFFFE"/>
      <path d="M24.631,24.034 C24.598,24.034 24.571,24.062 24.571,24.096 C24.571,24.131 24.598,24.159 24.631,24.159 C24.664,24.159 24.69,24.131 24.69,24.096 C24.69,24.062 24.664,24.034 24.631,24.034" fill="#FFFFFE"/>
      <path d="M24.645,24.047 C24.63,24.047 24.619,24.06 24.619,24.075 C24.619,24.091 24.63,24.103 24.645,24.103 C24.66,24.103 24.672,24.091 24.672,24.075 C24.672,24.06 24.66,24.047 24.645,24.047" fill="#FFFFFE"/>
      <path d="M24.933,24.11 C24.864,24.11 24.808,24.169 24.808,24.241 C24.808,24.314 24.864,24.373 24.933,24.373 C25.002,24.373 25.057,24.314 25.057,24.241 C25.057,24.169 25.002,24.11 24.933,24.11" fill="#FFFFFE"/>
      <path d="M24.949,24.172 C24.916,24.172 24.889,24.2 24.889,24.235 C24.889,24.269 24.916,24.297 24.949,24.297 C24.982,24.297 25.008,24.269 25.008,24.235 C25.008,24.2 24.982,24.172 24.949,24.172" fill="#FFFFFE"/>
      <path d="M24.963,24.186 C24.948,24.186 24.936,24.198 24.936,24.214 C24.936,24.229 24.948,24.242 24.963,24.242 C24.978,24.242 24.99,24.229 24.99,24.214 C24.99,24.198 24.978,24.186 24.963,24.186" fill="#FFFFFE"/>
      <path d="M25.251,23.972 C25.182,23.972 25.126,24.031 25.126,24.103 C25.126,24.175 25.182,24.234 25.251,24.234 C25.32,24.234 25.376,24.175 25.376,24.103 C25.376,24.031 25.32,23.972 25.251,23.972" fill="#FFFFFE"/>
      <path d="M25.267,24.034 C25.234,24.034 25.207,24.062 25.207,24.096 C25.207,24.131 25.234,24.159 25.267,24.159 C25.3,24.159 25.326,24.131 25.326,24.096 C25.326,24.062 25.3,24.034 25.267,24.034" fill="#FFFFFE"/>
      <path d="M25.281,24.047 C25.267,24.047 25.255,24.06 25.255,24.075 C25.255,24.091 25.267,24.103 25.281,24.103 C25.296,24.103 25.308,24.091 25.308,24.075 C25.308,24.06 25.296,24.047 25.281,24.047" fill="#FFFFFE"/>
      <path d="M25.251,23.304 C25.182,23.304 25.126,23.362 25.126,23.435 C25.126,23.507 25.182,23.566 25.251,23.566 C25.32,23.566 25.376,23.507 25.376,23.435 C25.376,23.362 25.32,23.304 25.251,23.304" fill="#FFFFFE"/>
      <path d="M25.267,23.365 C25.234,23.365 25.207,23.393 25.207,23.428 C25.207,23.462 25.234,23.49 25.267,23.49 C25.3,23.49 25.326,23.462 25.326,23.428 C25.326,23.393 25.3,23.365 25.267,23.365" fill="#FFFFFE"/>
      <path d="M25.281,23.379 C25.267,23.379 25.255,23.392 25.255,23.407 C25.255,23.423 25.267,23.435 25.281,23.435 C25.296,23.435 25.308,23.423 25.308,23.407 C25.308,23.392 25.296,23.379 25.281,23.379" fill="#FFFFFE"/>
      <path d="M25.383,23.638 C25.314,23.638 25.258,23.696 25.258,23.769 C25.258,23.841 25.314,23.9 25.383,23.9 C25.451,23.9 25.507,23.841 25.507,23.769 C25.507,23.696 25.451,23.638 25.383,23.638" fill="#FFFFFE"/>
      <path d="M25.399,23.7 C25.366,23.7 25.339,23.728 25.339,23.762 C25.339,23.797 25.366,23.825 25.399,23.825 C25.431,23.825 25.458,23.797 25.458,23.762 C25.458,23.728 25.431,23.7 25.399,23.7" fill="#FFFFFE"/>
      <path d="M25.413,23.713 C25.398,23.713 25.386,23.726 25.386,23.741 C25.386,23.757 25.398,23.769 25.413,23.769 C25.428,23.769 25.44,23.757 25.44,23.741 C25.44,23.726 25.428,23.713 25.413,23.713" fill="#FFFFFE"/>
      <path d="M23.819,26.251 C24.224,25.599 24.081,25.094 23.785,24.378 C24.125,24.872 24.501,25.62 23.819,26.251" fill="#FFFFFE"/>
      <path d="M27.272,22.075 C26.94,22.588 26.198,22.947 25.458,23.19 C25.763,23.217 27.231,22.719 27.272,22.075" fill="#FFFFFE"/>
    </g>
    <g>
      <path d="M28.843,24.093 C28.616,24.587 28.191,25.05 27.83,25.349 C27.764,25.269 27.677,25.187 27.573,25.104 C27.848,24.827 28.112,24.359 28.177,24.093 L28.843,24.093" fill="#082B5A"/>
      <path d="M27.907,24.093 C27.775,24.448 27.59,24.741 27.408,24.983 C27.305,24.912 27.192,24.842 27.073,24.774 C27.213,24.577 27.33,24.322 27.389,24.093 L27.907,24.093" fill="#082B5A"/>
      <path d="M27.063,24.093 C27.033,24.306 26.97,24.5 26.864,24.663 C26.747,24.603 26.627,24.547 26.506,24.495 C26.557,24.368 26.599,24.23 26.621,24.093 L27.063,24.093" fill="#082B5A"/>
      <path d="M26.348,24.093 C26.333,24.204 26.305,24.306 26.272,24.401 C26.151,24.356 26.031,24.315 25.915,24.282 C25.93,24.22 25.942,24.157 25.951,24.093 L26.348,24.093 z M25.913,24.41 C25.903,24.409 25.891,24.408 25.879,24.407 L25.882,24.399 L25.913,24.41" fill="#082B5A"/>
      <path d="M27.041,23.882 C26.991,23.687 26.934,23.522 26.835,23.346 C26.72,23.396 26.599,23.44 26.478,23.478 C26.527,23.605 26.559,23.744 26.581,23.882 L27.041,23.882" fill="#082B5A"/>
      <path d="M26.344,23.882 C26.32,23.764 26.294,23.659 26.25,23.541 C26.125,23.571 26,23.595 25.878,23.609 C25.906,23.697 25.925,23.789 25.939,23.882 L26.344,23.882" fill="#082B5A"/>
      <path d="M28.844,23.882 C28.586,23.432 28.145,22.942 27.778,22.651 C27.711,22.758 27.614,22.862 27.496,22.959 C27.782,23.221 28.078,23.65 28.175,23.882 L28.844,23.882" fill="#082B5A"/>
      <path d="M27.899,23.882 C27.741,23.566 27.547,23.315 27.338,23.076 C27.247,23.137 27.148,23.195 27.043,23.249 C27.165,23.42 27.305,23.666 27.364,23.882 L27.899,23.882" fill="#082B5A"/>
    </g>
  </g>
  <g id="Layer_2"/>
</svg>
