<?xml version="1.0" encoding="UTF-8"?>
<!DOCTYPE svg PUBLIC "-//W3C//DTD SVG 1.1//EN" "http://www.w3.org/Graphics/SVG/1.1/DTD/svg11.dtd">
<svg version="1.1" xmlns="http://www.w3.org/2000/svg" xmlns:xlink="http://www.w3.org/1999/xlink" x="0" y="0" width="109.139" height="18.6" viewBox="0, 0, 109.139, 18.6">
  <g id="Layer_1">
    <path d="M27.034,7.225 L30.884,7.225 L30.884,11.875 L27.059,11.875 L27.059,18.15 L21.659,18.15 L21.659,0.45 L31.234,0.45 L31.234,5.35 L27.034,5.35 z" fill="#376FAE"/>
    <path d="M38.659,11.8 L38.209,11.8 L38.209,18.15 L33.009,18.15 L33.009,0.45 L39.584,0.45 Q41.109,0.45 42.247,0.85 Q43.384,1.25 44.109,2 Q44.834,2.75 45.197,3.812 Q45.559,4.875 45.559,6.2 Q45.559,7.1 45.359,7.825 Q45.159,8.55 44.859,9.113 Q44.559,9.675 44.184,10.05 Q43.809,10.425 43.434,10.6 L46.259,18.15 L40.534,18.15 z M38.209,4.975 L38.209,8.075 L38.659,8.075 Q38.884,8.075 39.159,8.012 Q39.434,7.95 39.659,7.775 Q39.884,7.6 40.034,7.3 Q40.184,7 40.184,6.525 Q40.184,6.025 40.047,5.725 Q39.909,5.425 39.697,5.25 Q39.484,5.075 39.247,5.025 Q39.009,4.975 38.809,4.975 z" fill="#376FAE"/>
    <path d="M47.559,0.45 L53.059,0.45 L53.059,18.15 L47.559,18.15 z" fill="#376FAE"/>
    <path d="M55.659,0.45 L65.109,0.45 L65.109,5.225 L60.834,5.225 L60.834,7 L64.709,7 L64.709,11.425 L60.834,11.425 L60.834,13.3 L65.434,13.3 L65.434,18.15 L55.659,18.15 z" fill="#376FAE"/>
    <path d="M83.172,18.15 L83.172,0.45 L88.872,0.45 Q91.047,0.45 92.559,1.112 Q94.072,1.775 95.009,2.95 Q95.947,4.125 96.372,5.762 Q96.797,7.4 96.797,9.35 Q96.797,11.275 96.372,12.887 Q95.947,14.5 95.009,15.662 Q94.072,16.825 92.559,17.487 Q91.047,18.15 88.872,18.15 z M91.322,9.35 Q91.322,7.375 90.697,6.287 Q90.072,5.2 88.972,5.2 L88.647,5.2 L88.647,13.4 L88.972,13.4 Q90.072,13.4 90.697,12.312 Q91.322,11.225 91.322,9.35 z" fill="#376FAE"/>
    <g>
      <path d="M72.064,9.8 L71.989,9.8 L72.189,18.15 L67.364,18.15 L67.364,0.45 L73.139,0.45 L75.914,9.075 L76.014,9.075 L75.864,0.45 L80.514,0.45 L80.514,18.15 L74.889,18.15 z" fill="#082B5A"/>
      <path d="M102.714,18.6 Q101.814,18.6 101.001,18.438 Q100.189,18.275 99.501,18 Q98.814,17.725 98.239,17.375 Q97.664,17.025 97.264,16.675 L99.864,12.55 Q100.439,13.025 101.126,13.325 Q101.814,13.625 102.489,13.625 Q102.914,13.625 103.201,13.413 Q103.489,13.2 103.489,12.8 Q103.489,12.325 103.076,12 Q102.664,11.675 101.789,11.25 Q101.039,10.9 100.364,10.463 Q99.689,10.025 99.164,9.4 Q98.639,8.775 98.326,7.938 Q98.014,7.1 98.014,5.975 Q98.014,4.35 98.589,3.213 Q99.164,2.075 100.051,1.363 Q100.939,0.65 102.026,0.325 Q103.114,0 104.164,0 Q105.764,0 107.026,0.5 Q108.289,1 109.139,1.8 L106.464,5.875 Q106.039,5.45 105.464,5.163 Q104.889,4.875 104.364,4.875 Q103.964,4.875 103.639,5.075 Q103.314,5.275 103.314,5.775 Q103.314,6.175 103.651,6.425 Q103.989,6.675 104.964,7.15 Q105.514,7.425 106.189,7.838 Q106.864,8.25 107.464,8.887 Q108.064,9.525 108.476,10.425 Q108.889,11.325 108.889,12.55 Q108.889,14.15 108.364,15.3 Q107.839,16.45 106.964,17.175 Q106.089,17.9 104.976,18.25 Q103.864,18.6 102.714,18.6 z" fill="#082B5A"/>
    </g>
    <g id="canstockphoto11111189">
      <path d="M16.221,18.108 C14.719,17.749 13.451,16.837 12.113,16.432 C11.255,16.173 10.369,16.168 9.404,16.714 C9.385,15.531 10.121,14.699 10.519,14.018 C10.976,13.237 10.675,12.471 10.274,11.72 C9.635,10.523 8.734,9.473 9.864,7.205 C10.133,6.692 10.538,6.285 11.022,5.983 C10.988,5.69 10.976,5.39 10.995,5.084 C10.015,5.586 9.138,6.602 8.042,5.948 C7.375,7.608 8.429,10.369 6.396,10.966 C6.191,11.653 4.366,12.981 2.373,11.281 C0.44,10.945 -0.983,8.491 0.849,6.944 C1.605,6.322 3.391,6.334 2.776,8.634 C2.4,8.156 1.996,7.972 1.82,8.149 C0.811,9.155 3.133,10.046 4.151,8.162 C3.939,5.971 3.998,2.639 6.265,1.698 C8.415,-1.101 12.696,1.2 11.652,4.744 C11.906,4.95 12.16,5.217 12.324,5.457 C14.171,5.039 16.372,5.709 17.099,7.493 C18.178,7.962 19.417,9.517 20.01,10.713 C19.395,12.198 17.863,13.6 17.099,13.806 C16.837,14.281 16.774,14.562 16.813,14.871 C19.605,15.774 18.549,18.523 16.221,18.108" fill="#082B5A"/>
      <path d="M12.032,16.064 C11.305,15.878 10.547,15.874 9.704,16.245 C9.756,15.95 9.869,15.67 10.009,15.401 C10.849,15.145 11.603,15.256 12.338,15.521 C12.249,15.71 12.147,15.892 12.032,16.064" fill="#082B5A"/>
      <path d="M16.181,17.759 C14.74,17.416 13.539,16.521 12.264,16.129 C12.379,15.97 12.48,15.796 12.567,15.609 C13.676,16.056 14.754,16.805 16.032,17.11 C17.774,17.515 18.685,16.326 17.038,15.442 C18.309,16.279 17.663,17.229 16.05,16.854 C14.802,16.557 13.745,15.835 12.663,15.385 C13.229,13.952 13.087,11.965 12.395,11.123 C12.936,12.16 13.005,13.895 12.437,15.295 C11.721,15.026 10.988,14.895 10.177,15.104 C10.881,13.937 11.368,13.424 10.755,12.078 C10.136,10.721 8.962,9.58 10.077,7.462 C11.375,4.995 15.66,5.065 16.814,7.627 C16.609,8.786 13.889,9.617 13.365,9.618 C13.384,9.677 13.374,9.707 13.393,9.766 C14.868,9.674 16.823,8.772 17.056,7.774 C17.942,8.342 19.225,9.628 19.669,10.714 C19.115,12.054 17.815,13.16 17.063,13.48 C16.731,12.634 14.35,11.416 12.906,11.222 C12.888,11.281 12.897,11.311 12.878,11.369 C14.4,11.738 16.244,12.776 16.856,13.625 C16.271,14.317 16.443,15.802 17.115,16.338 C16.908,15.864 16.761,15.588 16.733,15.118 C19.103,16.032 18.348,18.146 16.181,17.759" fill="#082B5A"/>
      <path d="M12.795,11.9 C12.695,11.591 12.561,11.324 12.395,11.123 C12.516,11.354 12.613,11.62 12.684,11.908 L12.659,11.909 C11.935,11.914 11.348,11.302 11.348,10.542 C11.348,9.781 11.935,9.16 12.659,9.154 C13.024,9.152 13.354,9.306 13.592,9.557 C13.495,9.585 13.417,9.606 13.365,9.618 C13.148,10.039 13.065,10.512 12.906,11.222 C12.888,11.281 12.897,11.311 12.878,11.369 C14.4,11.738 16.244,12.776 16.856,13.625 C16.825,13.661 16.797,13.699 16.771,13.74 C16.106,12.937 14.679,12.246 13.278,11.74 C13.131,11.824 12.969,11.88 12.795,11.9" fill="#082B5A"/>
      <path d="M12.728,9.119 C12.042,9.119 11.486,9.703 11.486,10.424 C11.486,11.144 12.042,11.728 12.728,11.728 C13.414,11.728 13.97,11.144 13.97,10.424 C13.97,9.703 13.414,9.119 12.728,9.119" fill="#082B5A"/>
      <path d="M12.764,9.325 C12.207,9.325 11.755,9.8 11.755,10.386 C11.755,10.971 12.207,11.446 12.764,11.446 C13.322,11.446 13.774,10.971 13.774,10.386 C13.774,9.8 13.322,9.325 12.764,9.325" fill="#082B5A"/>
      <path d="M12.811,9.401 C12.309,9.401 11.902,9.828 11.902,10.356 C11.902,10.884 12.309,11.311 12.811,11.311 C13.313,11.311 13.721,10.884 13.721,10.356 C13.721,9.828 13.313,9.401 12.811,9.401" fill="#082B5A"/>
      <path d="M12.764,9.856 C12.486,9.856 12.26,10.093 12.26,10.386 C12.26,10.678 12.486,10.915 12.764,10.915 C13.043,10.915 13.268,10.678 13.268,10.386 C13.268,10.093 13.043,9.856 12.764,9.856" fill="#082B5A"/>
      <path d="M12.798,9.994 C12.61,9.994 12.458,10.154 12.458,10.35 C12.458,10.547 12.61,10.707 12.798,10.707 C12.985,10.707 13.137,10.547 13.137,10.35 C13.137,10.154 12.985,9.994 12.798,9.994" fill="#082B5A"/>
      <path d="M19.095,10.792 C18.712,11.624 17.994,12.405 17.386,12.91 C17.276,12.775 17.128,12.636 16.952,12.497 C17.417,12.03 17.862,11.24 17.972,10.792 L19.095,10.792" fill="#082B5A"/>
      <path d="M17.516,10.792 C17.294,11.39 16.981,11.885 16.674,12.292 C16.501,12.173 16.311,12.055 16.109,11.941 C16.345,11.608 16.544,11.178 16.642,10.792 L17.516,10.792" fill="#082B5A"/>
      <path d="M16.093,10.792 C16.042,11.151 15.937,11.479 15.757,11.752 C15.561,11.652 15.358,11.557 15.153,11.47 C15.24,11.255 15.31,11.023 15.347,10.792 L16.093,10.792" fill="#082B5A"/>
      <path d="M14.887,10.792 C14.861,10.979 14.815,11.151 14.758,11.311 C14.555,11.235 14.353,11.167 14.158,11.11 C14.183,11.006 14.203,10.9 14.218,10.792 L14.887,10.792 z M14.154,11.326 C14.136,11.324 14.117,11.323 14.097,11.322 L14.101,11.307 L14.154,11.326" fill="#082B5A"/>
      <path d="M16.056,10.435 C15.971,10.107 15.876,9.829 15.709,9.532 C15.514,9.616 15.311,9.691 15.106,9.755 C15.189,9.97 15.243,10.203 15.28,10.435 L16.056,10.435" fill="#082B5A"/>
      <path d="M14.881,10.435 C14.839,10.237 14.797,10.06 14.722,9.861 C14.511,9.912 14.3,9.951 14.096,9.977 C14.141,10.124 14.175,10.278 14.197,10.435 L14.881,10.435" fill="#082B5A"/>
      <path d="M19.096,10.435 C18.661,9.678 17.916,8.851 17.298,8.36 C17.186,8.541 17.022,8.716 16.823,8.879 C17.306,9.321 17.804,10.045 17.968,10.435 L19.096,10.435" fill="#082B5A"/>
      <path d="M17.502,10.435 C17.237,9.903 16.908,9.481 16.557,9.077 C16.403,9.18 16.236,9.278 16.059,9.368 C16.265,9.656 16.5,10.073 16.6,10.435 L17.502,10.435" fill="#082B5A"/>
      <path d="M17.129,13.335 C16.548,12.43 15.288,11.869 13.752,11.308 C13.771,11.249 13.864,11.19 13.883,11.131 C14.856,11.294 17.196,12.466 17.129,13.335" fill="#082B5A"/>
      <path d="M17.129,8.101 C16.548,8.895 15.372,9.492 13.837,9.763 C13.855,9.826 13.911,9.824 13.93,9.886 C14.903,9.908 17.14,9.032 17.129,8.101" fill="#082B5A"/>
      <path d="M19.588,10.718 C19.246,10.745 14.818,10.706 14.095,10.628 C14.31,10.51 18.093,10.464 19.444,10.505 C19.502,10.567 19.559,10.658 19.588,10.718" fill="#082B5A"/>
      <path d="M12.764,9.368 C12.648,9.368 12.554,9.467 12.554,9.589 C12.554,9.711 12.648,9.81 12.764,9.81 C12.881,9.81 12.975,9.711 12.975,9.589 C12.975,9.467 12.881,9.368 12.764,9.368" fill="#082B5A"/>
      <path d="M12.791,9.472 C12.736,9.472 12.691,9.519 12.691,9.577 C12.691,9.635 12.736,9.683 12.791,9.683 C12.847,9.683 12.892,9.635 12.892,9.577 C12.892,9.519 12.847,9.472 12.791,9.472" fill="#082B5A"/>
      <path d="M12.816,9.495 C12.791,9.495 12.771,9.516 12.771,9.542 C12.771,9.568 12.791,9.589 12.816,9.589 C12.841,9.589 12.861,9.568 12.861,9.542 C12.861,9.516 12.841,9.495 12.816,9.495" fill="#082B5A"/>
      <path d="M12.826,10.038 C12.677,10.038 12.557,10.165 12.557,10.321 C12.557,10.477 12.677,10.604 12.826,10.604 C12.975,10.604 13.095,10.477 13.095,10.321 C13.095,10.165 12.975,10.038 12.826,10.038" fill="#082B5A"/>
      <path d="M12.87,10.092 C12.78,10.092 12.706,10.169 12.706,10.265 C12.706,10.36 12.78,10.437 12.87,10.437 C12.961,10.437 13.034,10.36 13.034,10.265 C13.034,10.169 12.961,10.092 12.87,10.092" fill="#082B5A"/>
      <path d="M12.768,15.368 C13.431,14.227 13.033,12.257 12.871,11.89 C13.016,11.863 13.153,11.812 13.278,11.74 C13.789,11.925 14.304,12.134 14.784,12.365 C14.873,13.001 14.719,13.835 14.48,14.544 C14.773,14.04 14.973,13.419 14.991,12.758 C15.249,14.085 14.397,15.151 13.86,15.807 C13.532,15.627 12.97,15.338 12.768,15.368" fill="#082B5A"/>
      <path d="M12.17,15.764 C11.419,15.543 10.596,15.392 9.885,15.811 C10.055,15.115 11.517,15.219 12.287,15.538 C12.25,15.615 12.211,15.69 12.17,15.764" fill="#082B5A"/>
      <path d="M16.135,17.405 C14.741,17.073 13.706,16.314 12.489,15.893 C12.53,15.822 12.568,15.768 12.605,15.692 C13.787,16.124 14.862,16.904 16.219,17.228 C16.869,17.379 18.709,17.077 17.597,15.703 C18.89,16.754 17.532,17.73 16.135,17.405" fill="#082B5A"/>
      <path d="M11.418,4.72 C12.288,1.593 8.965,-0.427 6.708,1.514 C7.338,1.426 8.068,1.55 8.595,1.944 C4.824,0.92 4.147,4.552 4.346,7.865 C4.819,7.261 4.786,5.44 5.877,4.966 C5.298,5.633 5.086,6.61 4.833,7.384 C4.476,8.476 3.487,9.702 2.269,9.535 C1.354,9.409 0.843,8.14 1.307,7.421 C1.253,7.833 1.285,7.991 1.426,8.366 C1.553,7.803 2.096,7.4 2.646,8.169 C2.844,6.538 1.673,6.752 1.147,7.094 C-0.718,8.305 0.617,10.7 2.408,11.012 C2.314,10.821 2.006,10.152 2.004,9.681 C2.543,11.131 3.559,12.367 5.325,11.546 C6.542,10.981 6.331,9.521 6.139,8.388 C6.536,9.032 6.595,9.932 6.413,10.635 C8.821,9.773 5.82,5.914 9.507,4.182 C9.054,4.576 8.468,5.064 8.169,5.753 C9.057,6.099 9.914,5.386 10.719,4.945 C10.501,4.816 10.114,4.697 9.858,4.735 C10.261,4.463 10.84,4.906 11.108,4.914 C10.532,2.911 8.262,2.619 6.929,3.226 C8.351,2.371 10.808,2.933 11.269,4.889 C11.34,4.862 11.398,4.812 11.418,4.72" fill="#082B5A"/>
      <path d="M16.116,17.671 C14.722,17.338 13.622,16.511 12.404,16.089 C12.951,15.976 15.091,17.5 16.658,17.58 C17.242,17.61 17.883,17.404 18.027,16.962 C18.01,17.531 17.083,17.917 16.116,17.671" fill="#082B5A"/>
      <path d="M9.801,16.135 C9.99,15.508 11.694,15.534 12.091,15.912 C11.265,15.862 10.525,15.71 9.801,16.135" fill="#082B5A"/>
      <path d="M17.171,16.515 C16.125,15.481 16.329,14.11 16.686,13.643 C16.472,13.409 16.195,13.185 15.874,12.972 C15.365,13.975 15.684,15.79 16.488,16.5 C16.274,16.174 16.124,15.785 16.033,15.392 C16.283,15.926 16.627,16.301 17.171,16.515" fill="#082B5A"/>
      <path d="M16.097,16.795 C14.704,16.463 13.959,15.773 12.741,15.352 C13.037,15.182 15.561,16.47 16.181,16.618 C16.785,16.74 18.101,16.841 16.989,15.466 C18.291,16.477 17.51,17.056 16.097,16.795" fill="#082B5A"/>
      <path d="M16.863,16.303 C16.197,15.293 16.231,14.104 16.612,13.666 C15.944,13.702 15.6,15.188 16.863,16.303" fill="#082B5A"/>
      <path d="M12.889,15.26 C13.338,14.515 13.368,12.896 12.953,11.954 C13.377,12.275 14.039,14.195 12.889,15.26" fill="#082B5A"/>
      <path d="M12.375,15.102 C12.523,14.414 12.743,13.158 12.448,11.984 C12.726,12.276 13.049,13.857 12.375,15.102" fill="#082B5A"/>
      <path d="M10.836,6.611 C12.135,6.173 14.284,7.089 15.126,8.14 C14.851,7.429 13.775,6.551 12.551,6.392 C13.769,6.286 15.447,7.183 15.779,8.321 C16.126,8.14 16.477,7.752 16.651,7.538 C16.297,6.64 14.048,4.547 10.836,6.611" fill="#082B5A"/>
      <path d="M12.387,6.052 C13.409,5.835 15.26,6.287 16.548,7.491 C15.833,6.187 14.003,5.411 12.387,6.052" fill="#082B5A"/>
      <path d="M11.926,14.999 C11.486,14.814 10.681,14.842 10.346,14.986 C11.025,13.859 11.42,13.434 10.869,12.135 C10.231,10.633 8.956,9.221 10.526,7.029 C10.118,8.141 10.298,9.052 10.669,9.881 C10.491,9.132 10.564,8.057 10.993,7.226 C10.614,9.099 10.814,10.056 11.204,10.878 C11.859,12.257 12.764,13.43 11.926,14.999" fill="#082B5A"/>
      <path d="M10.308,15.034 C10.572,14.525 11.975,14.697 12.372,15.119 C11.802,14.969 10.963,14.761 10.308,15.034" fill="#082B5A"/>
      <path d="M10.636,14.76 C11.23,13.773 11.511,13.354 11.039,12.218 C10.451,10.805 9.221,9.707 10.189,7.659 C9.889,9.707 10.491,10.404 11.005,11.369 C10.898,11.03 10.794,10.669 10.726,10.262 C11.307,11.545 12.634,14.034 10.636,14.76" fill="#082B5A"/>
      <path d="M19.151,10.435 C18.888,9.938 18.141,8.875 17.191,8.133 C17.983,8.323 19.082,9.748 19.448,10.435 L19.151,10.435" fill="#082B5A"/>
      <path d="M17.564,10.435 C17.32,9.96 17.045,9.453 16.648,9.077 C17.156,9.269 17.582,9.786 17.902,10.435 L17.564,10.435" fill="#082B5A"/>
      <path d="M16.125,10.435 C16.09,10.186 15.969,9.755 15.839,9.5 C16.163,9.647 16.416,10.096 16.542,10.435 L16.125,10.435" fill="#082B5A"/>
      <path d="M14.93,10.435 C14.92,10.27 14.885,9.966 14.815,9.815 C15.022,9.923 15.168,10.215 15.228,10.435 L14.93,10.435" fill="#082B5A"/>
      <path d="M19.208,10.792 C18.961,11.308 18.216,12.433 17.238,13.131 C17.965,13.144 19.259,11.542 19.517,10.792 L19.208,10.792" fill="#082B5A"/>
      <path d="M17.64,10.792 C17.555,11.121 17.12,12.017 16.723,12.393 C17.266,12.207 17.739,11.289 17.917,10.792 L17.64,10.792" fill="#082B5A"/>
      <path d="M16.189,10.792 C16.18,10.999 16.046,11.526 15.886,11.764 C16.207,11.618 16.488,11.193 16.581,10.792 L16.189,10.792" fill="#082B5A"/>
      <path d="M14.969,10.792 C14.975,10.921 14.939,11.21 14.88,11.365 C15.085,11.259 15.2,11.061 15.277,10.792 L14.969,10.792" fill="#082B5A"/>
      <path d="M12.074,5.571 C11.959,5.391 11.749,5.135 11.562,4.99 C11.508,5.012 11.404,5.056 11.304,5.129 C11.316,5.349 11.375,5.603 11.41,5.832 C11.625,5.725 11.845,5.64 12.074,5.571" fill="#082B5A"/>
      <path d="M11.952,5.521 C11.888,5.397 11.697,5.158 11.551,5.054 C11.47,5.314 11.684,5.643 11.952,5.521" fill="#082B5A"/>
      <path d="M11.255,4.64 C12.284,2.081 9.556,-0.038 7.497,1.194 C8.056,1.116 8.825,1.591 8.778,2.068 C7.113,1.472 5.776,1.923 5.079,3.608 C5.825,3.003 6.824,2.74 7.082,2.778 C5.078,3.398 4.52,4.869 4.643,6.889 C4.867,5.861 5.38,4.806 6.459,4.661 C5.946,5.253 5.477,6.336 5.253,7.024 C5.052,7.639 4.67,8.394 4.148,8.938 C4.848,8.535 5.584,7.497 5.871,6.59 C5.766,7.784 4.621,9.181 3.387,9.56 C3.988,9.601 4.646,9.52 5.167,9.329 C4.882,9.613 3.333,9.975 2.314,9.603 C1.339,9.351 0.708,8.158 1.407,7.219 C1.383,7.446 1.444,7.729 1.528,7.984 C1.804,7.602 2.282,7.569 2.592,8.064 C2.768,6.617 1.729,6.866 1.261,7.169 C0.368,7.731 0.472,9.029 1.081,9.886 C0.935,9.275 0.861,8.735 0.988,8.513 C1.014,9.464 1.187,10.465 2.193,10.675 C2.11,10.506 1.799,9.839 2.069,9.598 C2.286,10.08 2.578,10.59 2.946,10.987 C2.879,10.7 2.826,10.216 3.019,9.829 C2.815,11.211 4.156,12.037 5.222,11.504 C6.301,11.003 6.339,9.688 6.038,8.131 C6.932,8.348 6.947,9.757 6.637,10.361 C8.549,9.635 5.567,5.375 9.98,3.896 C9.581,4.303 8.897,4.924 8.718,5.566 C9.442,5.804 10.086,5.151 10.579,4.954 C10.566,4.906 10.017,4.766 9.794,4.798 C9.762,4.504 10.305,4.307 10.528,4.361 C9.618,2.955 7.785,3.956 6.939,4.8 C7.089,4.441 7.861,3.574 9.315,3.399 C8.672,3.077 7.769,3.133 6.79,3.274 C9.298,1.785 11.072,3.895 11.255,4.64" fill="#082B5A"/>
      <path d="M11.361,4.141 C11.258,2.509 9.65,1.233 8.802,0.949 C10.62,0.869 11.671,2.695 11.361,4.141" fill="#082B5A"/>
      <path d="M9.396,2.49 C8.635,2.114 6.401,2.017 5.749,2.627 C6.455,1.555 8.57,1.79 9.396,2.49" fill="#082B5A"/>
      <path d="M9.782,3.846 C7.884,4.346 7.163,6.251 7.352,7.147 C6.894,5.297 8.371,3.832 9.782,3.846" fill="#082B5A"/>
      <path d="M6.026,9.454 C5.843,11.767 3.854,11.596 3.175,10.532 C4.056,12.556 6.57,11.423 6.026,9.454" fill="#082B5A"/>
      <path d="M10.892,3.859 C10.428,2.832 8.459,2.377 7.56,2.889 C8.489,2.031 10.605,2.549 10.892,3.859" fill="#082B5A"/>
      <path d="M6.993,10.076 C7.239,9.232 6.981,7.534 6.69,6.387 C7.143,6.982 7.647,8.994 6.993,10.076" fill="#082B5A"/>
      <path d="M7.203,4.113 C5.84,4.529 5.064,5.127 4.704,6.211 C4.692,5.069 5.685,4.104 7.203,4.113" fill="#082B5A"/>
      <path d="M11.276,3.384 C10.987,2.056 10.061,1.233 9.251,1.126 C10.04,1.017 11.232,1.908 11.276,3.384" fill="#082B5A"/>
      <path d="M8.839,2.187 C7.963,2.075 7.198,1.944 6.388,2.156 C6.937,1.811 8.205,1.894 8.839,2.187" fill="#082B5A"/>
      <path d="M9.155,4.054 C8.479,4.396 7.767,5.059 7.471,5.873 C7.515,5.192 8.381,4.24 9.155,4.054" fill="#082B5A"/>
      <path d="M3.833,9.38 C4.648,9.168 5.576,8.026 5.915,6.821 C5.839,7.8 5.052,9.415 3.833,9.38" fill="#082B5A"/>
      <path d="M5.62,8.37 C6.392,7.207 6.214,6.284 7.105,5.036 C6.002,5.987 6.227,6.891 5.62,8.37" fill="#082B5A"/>
      <path d="M8.274,1.17 C9.023,1.421 10.359,2.27 11.045,3.519 C10.608,2.181 9.082,1.14 8.274,1.17" fill="#082B5A"/>
      <path d="M10.359,4.936 C9.671,4.802 9.451,5.356 8.879,5.424 C9.266,5.81 9.998,5.104 10.359,4.936" fill="#082B5A"/>
      <path d="M3.618,10.375 C4.376,10.502 5.412,9.861 5.942,8.941 C5.687,9.764 4.684,10.87 3.618,10.375" fill="#082B5A"/>
      <path d="M12.228,9.601 C12.112,9.601 12.018,9.7 12.018,9.822 C12.018,9.944 12.112,10.043 12.228,10.043 C12.344,10.043 12.439,9.944 12.439,9.822 C12.439,9.7 12.344,9.601 12.228,9.601" fill="#082B5A"/>
      <path d="M12.255,9.705 C12.2,9.705 12.155,9.753 12.155,9.811 C12.155,9.869 12.2,9.916 12.255,9.916 C12.311,9.916 12.356,9.869 12.356,9.811 C12.356,9.753 12.311,9.705 12.255,9.705" fill="#082B5A"/>
      <path d="M12.28,9.729 C12.255,9.729 12.235,9.75 12.235,9.776 C12.235,9.802 12.255,9.823 12.28,9.823 C12.304,9.823 12.325,9.802 12.325,9.776 C12.325,9.75 12.304,9.729 12.28,9.729" fill="#082B5A"/>
      <path d="M12.006,10.164 C11.89,10.164 11.795,10.263 11.795,10.386 C11.795,10.508 11.89,10.607 12.006,10.607 C12.122,10.607 12.216,10.508 12.216,10.386 C12.216,10.263 12.122,10.164 12.006,10.164" fill="#082B5A"/>
      <path d="M12.033,10.269 C11.978,10.269 11.933,10.316 11.933,10.374 C11.933,10.432 11.978,10.48 12.033,10.48 C12.088,10.48 12.133,10.432 12.133,10.374 C12.133,10.316 12.088,10.269 12.033,10.269" fill="#082B5A"/>
      <path d="M12.057,10.292 C12.033,10.292 12.012,10.313 12.012,10.339 C12.012,10.365 12.033,10.386 12.057,10.386 C12.082,10.386 12.102,10.365 12.102,10.339 C12.102,10.313 12.082,10.292 12.057,10.292" fill="#082B5A"/>
      <path d="M12.228,10.728 C12.112,10.728 12.018,10.827 12.018,10.949 C12.018,11.071 12.112,11.17 12.228,11.17 C12.345,11.17 12.439,11.071 12.439,10.949 C12.439,10.827 12.345,10.728 12.228,10.728" fill="#082B5A"/>
      <path d="M12.255,10.832 C12.2,10.832 12.155,10.879 12.155,10.938 C12.155,10.996 12.2,11.043 12.255,11.043 C12.311,11.043 12.356,10.996 12.356,10.938 C12.356,10.879 12.311,10.832 12.255,10.832" fill="#082B5A"/>
      <path d="M12.28,10.855 C12.255,10.855 12.235,10.877 12.235,10.903 C12.235,10.929 12.255,10.95 12.28,10.95 C12.305,10.95 12.325,10.929 12.325,10.903 C12.325,10.877 12.305,10.855 12.28,10.855" fill="#082B5A"/>
      <path d="M12.764,10.961 C12.648,10.961 12.554,11.06 12.554,11.182 C12.554,11.305 12.648,11.404 12.764,11.404 C12.881,11.404 12.975,11.305 12.975,11.182 C12.975,11.06 12.881,10.961 12.764,10.961" fill="#082B5A"/>
      <path d="M12.791,11.065 C12.736,11.065 12.691,11.113 12.691,11.171 C12.691,11.229 12.736,11.276 12.791,11.276 C12.847,11.276 12.892,11.229 12.892,11.171 C12.892,11.113 12.847,11.065 12.791,11.065" fill="#082B5A"/>
      <path d="M12.816,11.089 C12.791,11.089 12.771,11.11 12.771,11.136 C12.771,11.162 12.791,11.183 12.816,11.183 C12.841,11.183 12.861,11.162 12.861,11.136 C12.861,11.11 12.841,11.089 12.816,11.089" fill="#082B5A"/>
      <path d="M13.301,10.728 C13.185,10.728 13.09,10.827 13.09,10.949 C13.09,11.071 13.185,11.17 13.301,11.17 C13.417,11.17 13.511,11.071 13.511,10.949 C13.511,10.827 13.417,10.728 13.301,10.728" fill="#082B5A"/>
      <path d="M13.328,10.832 C13.273,10.832 13.228,10.879 13.228,10.938 C13.228,10.996 13.273,11.043 13.328,11.043 C13.383,11.043 13.428,10.996 13.428,10.938 C13.428,10.879 13.383,10.832 13.328,10.832" fill="#082B5A"/>
      <path d="M13.352,10.855 C13.328,10.855 13.307,10.877 13.307,10.903 C13.307,10.929 13.328,10.95 13.352,10.95 C13.377,10.95 13.397,10.929 13.397,10.903 C13.397,10.877 13.377,10.855 13.352,10.855" fill="#082B5A"/>
      <path d="M13.301,9.601 C13.185,9.601 13.09,9.7 13.09,9.822 C13.09,9.944 13.185,10.043 13.301,10.043 C13.417,10.043 13.511,9.944 13.511,9.822 C13.511,9.7 13.417,9.601 13.301,9.601" fill="#082B5A"/>
      <path d="M13.328,9.705 C13.273,9.705 13.228,9.752 13.228,9.811 C13.228,9.869 13.273,9.916 13.328,9.916 C13.383,9.916 13.428,9.869 13.428,9.811 C13.428,9.752 13.383,9.705 13.328,9.705" fill="#082B5A"/>
      <path d="M13.352,9.728 C13.328,9.728 13.307,9.75 13.307,9.776 C13.307,9.802 13.328,9.823 13.352,9.823 C13.377,9.823 13.397,9.802 13.397,9.776 C13.397,9.75 13.377,9.728 13.352,9.728" fill="#082B5A"/>
      <path d="M13.523,10.165 C13.407,10.165 13.313,10.264 13.313,10.386 C13.313,10.508 13.407,10.607 13.523,10.607 C13.639,10.607 13.734,10.508 13.734,10.386 C13.734,10.264 13.639,10.165 13.523,10.165" fill="#082B5A"/>
      <path d="M13.55,10.269 C13.495,10.269 13.45,10.316 13.45,10.374 C13.45,10.432 13.495,10.48 13.55,10.48 C13.606,10.48 13.65,10.432 13.65,10.374 C13.65,10.316 13.606,10.269 13.55,10.269" fill="#082B5A"/>
      <path d="M13.574,10.292 C13.55,10.292 13.53,10.313 13.53,10.339 C13.53,10.365 13.55,10.386 13.574,10.386 C13.599,10.386 13.619,10.365 13.619,10.339 C13.619,10.313 13.599,10.292 13.574,10.292" fill="#082B5A"/>
      <path d="M10.887,14.571 C11.57,13.472 11.328,12.62 10.829,11.413 C11.403,12.245 12.037,13.506 10.887,14.571" fill="#082B5A"/>
      <path d="M16.708,7.53 C16.149,8.395 14.898,9 13.65,9.409 C14.164,9.455 16.64,8.615 16.708,7.53" fill="#082B5A"/>
    </g>
    <g>
      <path d="M19.289,10.839 C18.907,11.671 18.188,12.452 17.58,12.956 C17.47,12.822 17.322,12.683 17.146,12.543 C17.611,12.077 18.056,11.287 18.166,10.839 L19.289,10.839" fill="#FFFFFF"/>
      <path d="M17.71,10.839 C17.488,11.436 17.176,11.932 16.869,12.339 C16.696,12.219 16.505,12.101 16.304,11.987 C16.54,11.655 16.738,11.225 16.837,10.839 L17.71,10.839" fill="#FFFFFF"/>
      <path d="M16.288,10.839 C16.237,11.197 16.131,11.525 15.952,11.799 C15.755,11.699 15.552,11.604 15.347,11.516 C15.434,11.302 15.504,11.07 15.542,10.839 L16.288,10.839" fill="#FFFFFF"/>
      <path d="M15.082,10.839 C15.056,11.026 15.009,11.198 14.953,11.358 C14.749,11.281 14.548,11.213 14.352,11.157 C14.378,11.053 14.398,10.946 14.413,10.839 L15.082,10.839 z M14.348,11.373 C14.331,11.371 14.311,11.37 14.291,11.368 L14.296,11.354 L14.348,11.373" fill="#FFFFFF"/>
      <path d="M16.25,10.482 C16.166,10.154 16.07,9.875 15.903,9.579 C15.708,9.663 15.506,9.737 15.3,9.801 C15.383,10.016 15.438,10.25 15.474,10.482 L16.25,10.482" fill="#FFFFFF"/>
      <path d="M15.075,10.482 C15.034,10.283 14.991,10.106 14.917,9.908 C14.706,9.959 14.495,9.998 14.29,10.023 C14.336,10.17 14.369,10.325 14.392,10.482 L15.075,10.482" fill="#FFFFFF"/>
      <path d="M19.291,10.482 C18.856,9.725 18.111,8.898 17.493,8.407 C17.38,8.588 17.217,8.763 17.017,8.926 C17.5,9.367 17.998,10.092 18.162,10.482 L19.291,10.482" fill="#FFFFFF"/>
      <path d="M17.697,10.482 C17.431,9.95 17.103,9.527 16.751,9.123 C16.598,9.227 16.43,9.325 16.253,9.415 C16.459,9.703 16.695,10.119 16.795,10.482 L17.697,10.482" fill="#FFFFFF"/>
    </g>
  </g>
</svg>
