<?xml version="1.0" standalone="no"?>
<!DOCTYPE svg PUBLIC "-//W3C//DTD SVG 20010904//EN"
 "http://www.w3.org/TR/2001/REC-SVG-20010904/DTD/svg10.dtd">
<svg version="1.0" xmlns="http://www.w3.org/2000/svg"
 width="512.000000pt" height="512.000000pt" viewBox="0 0 512.000000 512.000000"
 preserveAspectRatio="xMidYMid meet">
<metadata>
Created by potrace 1.11, written by Peter Selinger 2001-2013
</metadata>
<g transform="translate(0.000000,512.000000) scale(0.100000,-0.100000)"
fill="#000000" stroke="none">
<path d="M2235 4149 c-108 -17 -205 -69 -291 -155 -34 -34 -77 -70 -96 -80
-47 -27 -108 -74 -141 -109 -91 -97 -167 -272 -193 -443 -3 -20 -8 -48 -11
-62 -8 -42 -12 -422 -4 -472 9 -57 -3 -90 -55 -147 -65 -73 -149 -112 -237
-112 -66 0 -112 17 -142 52 -29 36 -31 58 -8 106 32 68 86 66 159 -4 49 -49
54 -42 59 96 6 150 -66 232 -200 226 -170 -7 -321 -186 -317 -375 4 -194 174
-403 367 -451 28 -7 66 -25 85 -39 185 -140 387 -163 564 -64 44 25 126 105
126 124 0 5 24 21 53 36 147 74 191 179 202 485 6 163 11 236 21 294 6 39 26
105 31 105 2 0 20 -7 41 -16 20 -8 60 -15 87 -15 51 0 157 32 186 57 8 8 18
14 21 14 3 0 38 22 79 49 125 82 115 83 117 -12 l2 -82 -33 -22 c-155 -106
-269 -346 -268 -565 0 -108 30 -189 154 -419 70 -131 98 -208 98 -279 1 -89
-11 -121 -86 -237 -96 -146 -139 -247 -150 -352 -6 -49 -5 -53 12 -46 112 48
191 67 272 67 137 0 248 -33 474 -141 206 -99 264 -124 365 -158 147 -49 265
-48 364 3 54 28 116 100 132 155 32 106 10 183 -74 269 -49 50 -166 120 -199
120 -22 0 -15 81 11 143 17 39 29 52 72 73 126 63 280 211 386 372 94 142 99
158 63 224 -15 29 -31 58 -36 63 -4 6 -35 50 -70 99 -99 143 -273 311 -355
345 -22 9 -39 29 -58 69 -37 74 -152 189 -235 235 -63 34 -156 70 -214 81 -16
4 -41 9 -55 12 -40 8 -230 6 -280 -3 l-45 -9 -63 65 -63 65 12 55 c47 226 -27
447 -196 585 -125 102 -290 149 -440 125z"/>
</g>
</svg>
