<?xml version="1.0" encoding="UTF-8"?>
<!DOCTYPE svg PUBLIC "-//W3C//DTD SVG 1.1//EN" "http://www.w3.org/Graphics/SVG/1.1/DTD/svg11.dtd">
<svg version="1.1" xmlns="http://www.w3.org/2000/svg" xmlns:xlink="http://www.w3.org/1999/xlink" x="0" y="0" width="90" height="19" viewBox="0, 0, 90, 19">
  <g id="Layer_1">
    <path d="M83.855,0.266 Q85.455,0.266 86.717,0.766 Q87.98,1.266 88.83,2.066 L86.155,6.141 Q85.73,5.716 85.155,5.428 Q84.58,5.141 84.055,5.141 Q83.655,5.141 83.33,5.341 Q83.005,5.541 83.005,6.041 Q83.005,6.441 83.342,6.691 Q83.68,6.941 84.655,7.416 Q85.205,7.691 85.88,8.103 Q86.555,8.516 87.155,9.153 Q87.755,9.791 88.168,10.691 Q88.58,11.591 88.58,12.816 Q88.58,14.416 88.055,15.566 Q87.53,16.716 86.655,17.441 Q85.78,18.166 84.668,18.516 Q83.555,18.866 82.405,18.866 Q81.505,18.866 80.693,18.703 Q79.88,18.541 79.193,18.266 Q78.505,17.991 77.93,17.641 Q77.355,17.291 76.955,16.941 L79.555,12.816 Q80.13,13.291 80.818,13.591 Q81.505,13.891 82.18,13.891 Q82.605,13.891 82.893,13.678 Q83.18,13.466 83.18,13.066 Q83.18,12.591 82.768,12.266 Q82.355,11.941 81.48,11.516 Q80.73,11.166 80.055,10.728 Q79.38,10.291 78.855,9.666 Q78.33,9.041 78.018,8.203 Q77.705,7.366 77.705,6.241 Q77.705,4.616 78.28,3.478 Q78.855,2.341 79.743,1.628 Q80.63,0.916 81.717,0.591 Q82.805,0.266 83.855,0.266 z" fill="#082B5A"/>
    <path d="M68.505,0.716 Q70.68,0.716 72.192,1.378 Q73.705,2.041 74.643,3.216 Q75.58,4.391 76.005,6.029 Q76.43,7.666 76.43,9.616 Q76.43,11.541 76.005,13.153 Q75.58,14.766 74.643,15.929 Q73.705,17.091 72.192,17.753 Q70.68,18.416 68.505,18.416 L62.805,18.416 L62.805,0.716 L68.505,0.716 z M68.605,5.466 L68.28,5.466 L68.28,13.666 L68.605,13.666 Q69.705,13.666 70.33,12.578 Q70.955,11.491 70.955,9.616 Q70.955,7.641 70.33,6.554 Q69.705,5.466 68.605,5.466 z" fill="#376FAE"/>
    <path d="M52.83,0.716 L55.605,9.341 L55.705,9.341 L55.555,0.716 L60.205,0.716 L60.205,18.416 L54.58,18.416 L51.755,10.066 L51.68,10.066 L51.88,18.416 L47.055,18.416 L47.055,0.716 L52.83,0.716 z" fill="#082B5A"/>
    <path d="M44.83,0.716 L44.83,5.491 L40.555,5.491 L40.555,7.266 L44.43,7.266 L44.43,11.691 L40.555,11.691 L40.555,13.566 L45.155,13.566 L45.155,18.416 L35.38,18.416 L35.38,0.716 L44.83,0.716 z" fill="#376FAE"/>
    <path d="M32.78,0.716 L32.78,18.416 L27.28,18.416 L27.28,0.716 L32.78,0.716 z" fill="#376FAE"/>
    <path d="M19.305,0.716 Q20.83,0.716 21.968,1.116 Q23.105,1.516 23.83,2.266 Q24.555,3.016 24.917,4.078 Q25.28,5.141 25.28,6.466 Q25.28,7.366 25.08,8.091 Q24.88,8.816 24.58,9.378 Q24.28,9.941 23.905,10.316 Q23.53,10.691 23.155,10.866 L25.98,18.416 L20.255,18.416 L18.38,12.066 L17.93,12.066 L17.93,18.416 L12.73,18.416 L12.73,0.716 L19.305,0.716 z M18.53,5.241 L17.93,5.241 L17.93,8.341 L18.38,8.341 Q18.605,8.341 18.88,8.278 Q19.155,8.216 19.38,8.041 Q19.605,7.866 19.755,7.566 Q19.905,7.266 19.905,6.791 Q19.905,6.291 19.767,5.991 Q19.63,5.691 19.417,5.516 Q19.205,5.341 18.968,5.291 Q18.73,5.241 18.53,5.241 z" fill="#376FAE"/>
    <path d="M10.955,0.716 L10.955,5.616 L6.755,5.616 L6.755,7.491 L10.605,7.491 L10.605,12.141 L6.78,12.141 L6.78,18.416 L1.38,18.416 L1.38,0.716 L10.955,0.716 z" fill="#376FAE"/>
  </g>
</svg>
