<svg xmlns="http://www.w3.org/2000/svg" x="0" y="0" width="52" height="53" viewBox="0 0 52 53"><title>icon_heart</title><g class="nc-icon-wrapper" fill="#ffffff"><path fill="#ffffff" d="M24.081 36.258a.991.991 0 0 1-.383-.076c-.476-.195-11.667-4.916-11.667-14.318 0-3.605 2.957-6.538 6.59-6.538a6.578 6.578 0 0 1 5.438 2.837 6.503 6.503 0 0 1 5.408-2.837c3.604 0 6.533 2.907 6.533 6.481 0 9.577-11.068 14.186-11.542 14.377a1.02 1.02 0 0 1-.377.074zm-5.46-18.957c-2.535 0-4.598 2.046-4.598 4.562 0 7.205 8.179 11.443 10.059 12.322 1.861-.867 9.926-5.051 9.926-12.379 0-2.484-2.037-4.505-4.541-4.505-2.105 0-3.969 1.479-4.428 3.519a.994.994 0 0 1-.967.773h-.006a.996.996 0 0 1-.971-.765 4.565 4.565 0 0 0-4.474-3.527z"/></g></svg>